<svg width="700" height="1815" viewBox="0 0 700 1815" fill="none" xmlns="http://www.w3.org/2000/svg">
    <rect width="700" height="1815" fill="#696969" />
    <g id="theme_automotive_manufacturing 2" clip-path="url(#clip0_0_1)">
        <rect width="700" height="1815" fill="white" />
        <g id="Group 249">
            <g id="Theme_preview">
                <g id="Group">
                    <path id="Vector" d="M700 0H0V37H700V0Z" fill="#3AADAA" />
                    <path id="Vector_2"
                        d="M110.586 22.9998V21.4788H106.845V14.2728H105V22.9998H110.586ZM115.266 23.1198C116.036 23.1198 116.729 22.9438 117.346 22.5928C117.965 22.2428 118.453 21.7328 118.813 21.0648C119.173 20.3978 119.352 19.5878 119.352 18.6358C119.352 17.6848 119.172 16.8748 118.812 16.2068C118.453 15.5398 117.965 15.0308 117.347 14.6798C116.729 14.3288 116.035 14.1528 115.265 14.1528C114.49 14.1528 113.794 14.3288 113.177 14.6798C112.561 15.0298 112.073 15.5398 111.716 16.2068C111.358 16.8748 111.179 17.6848 111.179 18.6368C111.179 19.5848 111.358 20.3928 111.716 21.0608C112.046 21.7003 112.553 22.2314 113.177 22.5908C113.794 22.9428 114.49 23.1188 115.265 23.1188L115.266 23.1198ZM115.266 21.4868C114.853 21.4959 114.446 21.3817 114.098 21.1588C113.765 20.9398 113.508 20.6188 113.324 20.1958C113.141 19.7728 113.049 19.2528 113.049 18.6358C113.049 18.0198 113.141 17.4998 113.324 17.0758C113.507 16.6528 113.765 16.3318 114.098 16.1138C114.446 15.8907 114.852 15.7765 115.265 15.7858C115.711 15.7858 116.1 15.8948 116.433 16.1138C116.765 16.3318 117.023 16.6538 117.206 17.0768C117.39 17.4998 117.481 18.0198 117.481 18.6368C117.481 19.2528 117.39 19.7728 117.206 20.1958C117.023 20.6188 116.766 20.9398 116.433 21.1588C116.085 21.382 115.678 21.4962 115.265 21.4868H115.266ZM124.543 23.1188C125.276 23.1188 125.927 22.9708 126.495 22.6738C127.053 22.3866 127.517 21.946 127.833 21.4038C128.157 20.8538 128.319 20.1958 128.319 19.4288V18.3288H124.667V19.7188H126.539L126.535 19.8448C126.518 20.0818 126.465 20.2968 126.378 20.4898L126.305 20.6298C126.146 20.904 125.908 21.1244 125.623 21.2628C125.327 21.4128 124.969 21.4868 124.552 21.4868C124.092 21.4868 123.692 21.3758 123.354 21.1528C123.016 20.9298 122.754 20.6048 122.57 20.1788C122.386 19.7528 122.293 19.2358 122.293 18.6278C122.293 18.0198 122.387 17.5048 122.574 17.0828C122.762 16.6608 123.024 16.3388 123.361 16.1178C123.711 15.8926 124.119 15.777 124.535 15.7858C124.773 15.7858 124.991 15.8158 125.189 15.8748C125.386 15.9348 125.562 16.0208 125.717 16.1328C125.872 16.2448 126.003 16.3808 126.111 16.5418C126.219 16.7018 126.303 16.8858 126.363 17.0938H128.238C128.183 16.6752 128.045 16.2717 127.833 15.9068C127.624 15.5477 127.348 15.2317 127.021 14.9758C126.681 14.7094 126.297 14.504 125.886 14.3688C125.441 14.2219 124.974 14.149 124.505 14.1528C123.955 14.1478 123.409 14.2507 122.898 14.4558C122.407 14.6548 121.964 14.9554 121.598 15.3378C121.214 15.7434 120.919 16.2247 120.731 16.7508C120.525 17.3058 120.422 17.9368 120.422 18.6448C120.422 19.5648 120.595 20.3598 120.94 21.0288C121.262 21.6736 121.765 22.211 122.387 22.5758C123.007 22.9378 123.725 23.1188 124.543 23.1188ZM133.501 23.1188C134.271 23.1188 134.964 22.9438 135.582 22.5928C136.2 22.2428 136.689 21.7328 137.048 21.0648C137.408 20.3978 137.588 19.5878 137.588 18.6358C137.588 17.6848 137.408 16.8748 137.048 16.2068C136.688 15.5398 136.2 15.0308 135.582 14.6798C134.964 14.3288 134.271 14.1528 133.501 14.1528C132.725 14.1528 132.029 14.3288 131.413 14.6798C130.796 15.0298 130.309 15.5398 129.951 16.2068C129.593 16.8748 129.414 17.6848 129.414 18.6368C129.414 19.5848 129.593 20.3928 129.951 21.0608C130.309 21.7288 130.796 22.2388 131.413 22.5908C132.029 22.9428 132.725 23.1188 133.501 23.1188ZM133.501 21.4868C133.055 21.4868 132.665 21.3768 132.333 21.1588C132.001 20.9398 131.743 20.6188 131.56 20.1958C131.376 19.7728 131.285 19.2528 131.285 18.6358C131.285 18.0198 131.376 17.4998 131.56 17.0758C131.743 16.6528 132 16.3318 132.333 16.1138C132.681 15.8905 133.088 15.7763 133.501 15.7858C133.947 15.7858 134.336 15.8948 134.668 16.1138C135.001 16.3318 135.258 16.6538 135.442 17.0768C135.625 17.4998 135.717 18.0198 135.717 18.6368C135.717 19.2528 135.625 19.7728 135.442 20.1958C135.258 20.6188 135.001 20.9398 134.668 21.1588C134.32 21.3818 133.914 21.496 133.501 21.4868Z"
                        fill="black" />
                    <g id="Group_2" opacity="0.6">
                        <path id="Vector_3" d="M282 14.9998H245V21.9998H282V14.9998Z" fill="black" />
                        <path id="Vector_4" d="M340 14.9998H303V21.9998H340V14.9998Z" fill="black" />
                        <path id="Vector_5" d="M398 14.9998H361V21.9998H398V14.9998Z" fill="black" />
                        <path id="Vector_6" d="M456 14.9998H419V21.9998H456V14.9998Z" fill="black" />
                    </g>
                    <path id="Vector_7" d="M596 14.9998H559V21.9998H596V14.9998Z" fill="black" />
                </g>
                <g id="Group 1">
                    <g id="Group 2">
                        <rect id="Rectangle 1" y="37" width="700" height="296" fill="url(#theme_viin_manufacturing_automotive_s_carousel_default_image_1_id)" />
                    </g>
                </g>
            </g>
            <g id="Group 109">
                <rect id="Rectangle 119" y="585" width="700" height="353" fill="white" />
                <g id="Group 69">
                    <g id="Group 50">
                        <path id="Vector_8"
                            d="M207.644 884.518H121.873C121.121 884.518 120.512 885.644 120.512 887.033V889.549C120.512 890.938 121.121 892.064 121.873 892.064H207.644C208.396 892.064 209.006 890.938 209.006 889.549V887.033C209.006 885.644 208.396 884.518 207.644 884.518Z"
                            fill="#D9D9D9" />
                        <path id="Feature"
                            d="M139.064 858.359V859.691H133.61V863.921H138.038V865.253H133.61V870.905H131.972V858.359H139.064ZM150.042 865.595C150.042 865.907 150.024 866.237 149.988 866.585H142.104C142.164 867.557 142.494 868.319 143.094 868.871C143.706 869.411 144.444 869.681 145.308 869.681C146.016 869.681 146.604 869.519 147.072 869.195C147.552 868.859 147.888 868.415 148.08 867.863H149.844C149.58 868.811 149.052 869.585 148.26 870.185C147.468 870.773 146.484 871.067 145.308 871.067C144.372 871.067 143.532 870.857 142.788 870.437C142.056 870.017 141.48 869.423 141.06 868.655C140.64 867.875 140.43 866.975 140.43 865.955C140.43 864.935 140.634 864.041 141.042 863.273C141.45 862.505 142.02 861.917 142.752 861.509C143.496 861.089 144.348 860.879 145.308 860.879C146.244 860.879 147.072 861.083 147.792 861.491C148.512 861.899 149.064 862.463 149.448 863.183C149.844 863.891 150.042 864.695 150.042 865.595ZM148.35 865.253C148.35 864.629 148.212 864.095 147.936 863.651C147.66 863.195 147.282 862.853 146.802 862.625C146.334 862.385 145.812 862.265 145.236 862.265C144.408 862.265 143.7 862.529 143.112 863.057C142.536 863.585 142.206 864.317 142.122 865.253H148.35ZM151.592 865.937C151.592 864.929 151.796 864.047 152.204 863.291C152.612 862.523 153.17 861.929 153.878 861.509C154.598 861.089 155.396 860.879 156.272 860.879C157.136 860.879 157.886 861.065 158.522 861.437C159.158 861.809 159.632 862.277 159.944 862.841V861.041H161.6V870.905H159.944V869.069C159.62 869.645 159.134 870.125 158.486 870.509C157.85 870.881 157.106 871.067 156.254 871.067C155.378 871.067 154.586 870.851 153.878 870.419C153.17 869.987 152.612 869.381 152.204 868.601C151.796 867.821 151.592 866.933 151.592 865.937ZM159.944 865.955C159.944 865.211 159.794 864.563 159.494 864.011C159.194 863.459 158.786 863.039 158.27 862.751C157.766 862.451 157.208 862.301 156.596 862.301C155.984 862.301 155.426 862.445 154.922 862.733C154.418 863.021 154.016 863.441 153.716 863.993C153.416 864.545 153.266 865.193 153.266 865.937C153.266 866.693 153.416 867.353 153.716 867.917C154.016 868.469 154.418 868.895 154.922 869.195C155.426 869.483 155.984 869.627 156.596 869.627C157.208 869.627 157.766 869.483 158.27 869.195C158.786 868.895 159.194 868.469 159.494 867.917C159.794 867.353 159.944 866.699 159.944 865.955ZM166.366 862.391V868.205C166.366 868.685 166.468 869.027 166.672 869.231C166.876 869.423 167.23 869.519 167.734 869.519H168.94V870.905H167.464C166.552 870.905 165.868 870.695 165.412 870.275C164.956 869.855 164.728 869.165 164.728 868.205V862.391H163.45V861.041H164.728V858.557H166.366V861.041H168.94V862.391H166.366ZM179.673 861.041V870.905H178.035V869.447C177.723 869.951 177.285 870.347 176.721 870.635C176.169 870.911 175.557 871.049 174.885 871.049C174.117 871.049 173.427 870.893 172.815 870.581C172.203 870.257 171.717 869.777 171.357 869.141C171.009 868.505 170.835 867.731 170.835 866.819V861.041H172.455V866.603C172.455 867.575 172.701 868.325 173.193 868.853C173.685 869.369 174.357 869.627 175.209 869.627C176.085 869.627 176.775 869.357 177.279 868.817C177.783 868.277 178.035 867.491 178.035 866.459V861.041H179.673ZM184.077 862.643C184.365 862.079 184.773 861.641 185.301 861.329C185.841 861.017 186.495 860.861 187.263 860.861V862.553H186.831C184.995 862.553 184.077 863.549 184.077 865.541V870.905H182.439V861.041H184.077V862.643ZM198.154 865.595C198.154 865.907 198.136 866.237 198.1 866.585H190.216C190.276 867.557 190.606 868.319 191.206 868.871C191.818 869.411 192.556 869.681 193.42 869.681C194.128 869.681 194.716 869.519 195.184 869.195C195.664 868.859 196 868.415 196.192 867.863H197.956C197.692 868.811 197.164 869.585 196.372 870.185C195.58 870.773 194.596 871.067 193.42 871.067C192.484 871.067 191.644 870.857 190.9 870.437C190.168 870.017 189.592 869.423 189.172 868.655C188.752 867.875 188.542 866.975 188.542 865.955C188.542 864.935 188.746 864.041 189.154 863.273C189.562 862.505 190.132 861.917 190.864 861.509C191.608 861.089 192.46 860.879 193.42 860.879C194.356 860.879 195.184 861.083 195.904 861.491C196.624 861.899 197.176 862.463 197.56 863.183C197.956 863.891 198.154 864.695 198.154 865.595ZM196.462 865.253C196.462 864.629 196.324 864.095 196.048 863.651C195.772 863.195 195.394 862.853 194.914 862.625C194.446 862.385 193.924 862.265 193.348 862.265C192.52 862.265 191.812 862.529 191.224 863.057C190.648 863.585 190.318 864.317 190.234 865.253H196.462Z"
                            fill="#383E45" />
                    </g>
                    <g id="Group 51">
                        <path id="Vector_9"
                            d="M331.139 884.518H245.367C244.615 884.518 244.006 885.644 244.006 887.033V889.549C244.006 890.938 244.615 892.064 245.367 892.064H331.139C331.89 892.064 332.5 890.938 332.5 889.549V887.033C332.5 885.644 331.89 884.518 331.139 884.518Z"
                            fill="#D9D9D9" />
                        <path id="Feature_2"
                            d="M262.56 858.359V859.691H257.106V863.921H261.534V865.253H257.106V870.905H255.468V858.359H262.56ZM273.538 865.595C273.538 865.907 273.52 866.237 273.484 866.585H265.6C265.66 867.557 265.99 868.319 266.59 868.871C267.202 869.411 267.94 869.681 268.804 869.681C269.512 869.681 270.1 869.519 270.568 869.195C271.048 868.859 271.384 868.415 271.576 867.863H273.34C273.076 868.811 272.548 869.585 271.756 870.185C270.964 870.773 269.98 871.067 268.804 871.067C267.868 871.067 267.028 870.857 266.284 870.437C265.552 870.017 264.976 869.423 264.556 868.655C264.136 867.875 263.926 866.975 263.926 865.955C263.926 864.935 264.13 864.041 264.538 863.273C264.946 862.505 265.516 861.917 266.248 861.509C266.992 861.089 267.844 860.879 268.804 860.879C269.74 860.879 270.568 861.083 271.288 861.491C272.008 861.899 272.56 862.463 272.944 863.183C273.34 863.891 273.538 864.695 273.538 865.595ZM271.846 865.253C271.846 864.629 271.708 864.095 271.432 863.651C271.156 863.195 270.778 862.853 270.298 862.625C269.83 862.385 269.308 862.265 268.732 862.265C267.904 862.265 267.196 862.529 266.608 863.057C266.032 863.585 265.702 864.317 265.618 865.253H271.846ZM275.088 865.937C275.088 864.929 275.292 864.047 275.7 863.291C276.108 862.523 276.666 861.929 277.374 861.509C278.094 861.089 278.892 860.879 279.768 860.879C280.632 860.879 281.382 861.065 282.018 861.437C282.654 861.809 283.128 862.277 283.44 862.841V861.041H285.096V870.905H283.44V869.069C283.116 869.645 282.63 870.125 281.982 870.509C281.346 870.881 280.602 871.067 279.75 871.067C278.874 871.067 278.082 870.851 277.374 870.419C276.666 869.987 276.108 869.381 275.7 868.601C275.292 867.821 275.088 866.933 275.088 865.937ZM283.44 865.955C283.44 865.211 283.29 864.563 282.99 864.011C282.69 863.459 282.282 863.039 281.766 862.751C281.262 862.451 280.704 862.301 280.092 862.301C279.48 862.301 278.922 862.445 278.418 862.733C277.914 863.021 277.512 863.441 277.212 863.993C276.912 864.545 276.762 865.193 276.762 865.937C276.762 866.693 276.912 867.353 277.212 867.917C277.512 868.469 277.914 868.895 278.418 869.195C278.922 869.483 279.48 869.627 280.092 869.627C280.704 869.627 281.262 869.483 281.766 869.195C282.282 868.895 282.69 868.469 282.99 867.917C283.29 867.353 283.44 866.699 283.44 865.955ZM289.863 862.391V868.205C289.863 868.685 289.965 869.027 290.169 869.231C290.373 869.423 290.727 869.519 291.231 869.519H292.437V870.905H290.961C290.049 870.905 289.365 870.695 288.909 870.275C288.453 869.855 288.225 869.165 288.225 868.205V862.391H286.947V861.041H288.225V858.557H289.863V861.041H292.437V862.391H289.863ZM303.169 861.041V870.905H301.531V869.447C301.219 869.951 300.781 870.347 300.217 870.635C299.665 870.911 299.053 871.049 298.381 871.049C297.613 871.049 296.923 870.893 296.311 870.581C295.699 870.257 295.213 869.777 294.853 869.141C294.505 868.505 294.331 867.731 294.331 866.819V861.041H295.951V866.603C295.951 867.575 296.197 868.325 296.689 868.853C297.181 869.369 297.853 869.627 298.705 869.627C299.581 869.627 300.271 869.357 300.775 868.817C301.279 868.277 301.531 867.491 301.531 866.459V861.041H303.169ZM307.573 862.643C307.861 862.079 308.269 861.641 308.797 861.329C309.337 861.017 309.991 860.861 310.759 860.861V862.553H310.327C308.491 862.553 307.573 863.549 307.573 865.541V870.905H305.935V861.041H307.573V862.643ZM321.65 865.595C321.65 865.907 321.632 866.237 321.596 866.585H313.712C313.772 867.557 314.102 868.319 314.702 868.871C315.314 869.411 316.052 869.681 316.916 869.681C317.624 869.681 318.212 869.519 318.68 869.195C319.16 868.859 319.496 868.415 319.688 867.863H321.452C321.188 868.811 320.66 869.585 319.868 870.185C319.076 870.773 318.092 871.067 316.916 871.067C315.98 871.067 315.14 870.857 314.396 870.437C313.664 870.017 313.088 869.423 312.668 868.655C312.248 867.875 312.038 866.975 312.038 865.955C312.038 864.935 312.242 864.041 312.65 863.273C313.058 862.505 313.628 861.917 314.36 861.509C315.104 861.089 315.956 860.879 316.916 860.879C317.852 860.879 318.68 861.083 319.4 861.491C320.12 861.899 320.672 862.463 321.056 863.183C321.452 863.891 321.65 864.695 321.65 865.595ZM319.958 865.253C319.958 864.629 319.82 864.095 319.544 863.651C319.268 863.195 318.89 862.853 318.41 862.625C317.942 862.385 317.42 862.265 316.844 862.265C316.016 862.265 315.308 862.529 314.72 863.057C314.144 863.585 313.814 864.317 313.73 865.253H319.958Z"
                            fill="#383E45" />
                    </g>
                    <g id="Group 52">
                        <path id="Vector_10"
                            d="M454.633 884.518H368.861C368.11 884.518 367.5 885.644 367.5 887.033V889.549C367.5 890.938 368.11 892.064 368.861 892.064H454.633C455.385 892.064 455.994 890.938 455.994 889.549V887.033C455.994 885.644 455.385 884.518 454.633 884.518Z"
                            fill="#D9D9D9" />
                        <path id="Feature_3"
                            d="M386.052 858.359V859.691H380.598V863.921H385.026V865.253H380.598V870.905H378.96V858.359H386.052ZM397.031 865.595C397.031 865.907 397.013 866.237 396.977 866.585H389.093C389.153 867.557 389.483 868.319 390.083 868.871C390.695 869.411 391.433 869.681 392.297 869.681C393.005 869.681 393.593 869.519 394.061 869.195C394.541 868.859 394.877 868.415 395.069 867.863H396.833C396.569 868.811 396.041 869.585 395.249 870.185C394.457 870.773 393.473 871.067 392.297 871.067C391.361 871.067 390.521 870.857 389.777 870.437C389.045 870.017 388.469 869.423 388.049 868.655C387.629 867.875 387.419 866.975 387.419 865.955C387.419 864.935 387.623 864.041 388.031 863.273C388.439 862.505 389.009 861.917 389.741 861.509C390.485 861.089 391.337 860.879 392.297 860.879C393.233 860.879 394.061 861.083 394.781 861.491C395.501 861.899 396.053 862.463 396.437 863.183C396.833 863.891 397.031 864.695 397.031 865.595ZM395.339 865.253C395.339 864.629 395.201 864.095 394.925 863.651C394.649 863.195 394.271 862.853 393.791 862.625C393.323 862.385 392.801 862.265 392.225 862.265C391.397 862.265 390.689 862.529 390.101 863.057C389.525 863.585 389.195 864.317 389.111 865.253H395.339ZM398.581 865.937C398.581 864.929 398.785 864.047 399.193 863.291C399.601 862.523 400.159 861.929 400.867 861.509C401.587 861.089 402.385 860.879 403.261 860.879C404.125 860.879 404.875 861.065 405.511 861.437C406.147 861.809 406.621 862.277 406.933 862.841V861.041H408.589V870.905H406.933V869.069C406.609 869.645 406.123 870.125 405.475 870.509C404.839 870.881 404.095 871.067 403.243 871.067C402.367 871.067 401.575 870.851 400.867 870.419C400.159 869.987 399.601 869.381 399.193 868.601C398.785 867.821 398.581 866.933 398.581 865.937ZM406.933 865.955C406.933 865.211 406.783 864.563 406.483 864.011C406.183 863.459 405.775 863.039 405.259 862.751C404.755 862.451 404.197 862.301 403.585 862.301C402.973 862.301 402.415 862.445 401.911 862.733C401.407 863.021 401.005 863.441 400.705 863.993C400.405 864.545 400.255 865.193 400.255 865.937C400.255 866.693 400.405 867.353 400.705 867.917C401.005 868.469 401.407 868.895 401.911 869.195C402.415 869.483 402.973 869.627 403.585 869.627C404.197 869.627 404.755 869.483 405.259 869.195C405.775 868.895 406.183 868.469 406.483 867.917C406.783 867.353 406.933 866.699 406.933 865.955ZM413.355 862.391V868.205C413.355 868.685 413.457 869.027 413.661 869.231C413.865 869.423 414.219 869.519 414.723 869.519H415.929V870.905H414.453C413.541 870.905 412.857 870.695 412.401 870.275C411.945 869.855 411.717 869.165 411.717 868.205V862.391H410.439V861.041H411.717V858.557H413.355V861.041H415.929V862.391H413.355ZM426.661 861.041V870.905H425.023V869.447C424.711 869.951 424.273 870.347 423.709 870.635C423.157 870.911 422.545 871.049 421.873 871.049C421.105 871.049 420.415 870.893 419.803 870.581C419.191 870.257 418.705 869.777 418.345 869.141C417.997 868.505 417.823 867.731 417.823 866.819V861.041H419.443V866.603C419.443 867.575 419.689 868.325 420.181 868.853C420.673 869.369 421.345 869.627 422.197 869.627C423.073 869.627 423.763 869.357 424.267 868.817C424.771 868.277 425.023 867.491 425.023 866.459V861.041H426.661ZM431.065 862.643C431.353 862.079 431.761 861.641 432.289 861.329C432.829 861.017 433.483 860.861 434.251 860.861V862.553H433.819C431.983 862.553 431.065 863.549 431.065 865.541V870.905H429.427V861.041H431.065V862.643ZM445.142 865.595C445.142 865.907 445.124 866.237 445.088 866.585H437.204C437.264 867.557 437.594 868.319 438.194 868.871C438.806 869.411 439.544 869.681 440.408 869.681C441.116 869.681 441.704 869.519 442.172 869.195C442.652 868.859 442.988 868.415 443.18 867.863H444.944C444.68 868.811 444.152 869.585 443.36 870.185C442.568 870.773 441.584 871.067 440.408 871.067C439.472 871.067 438.632 870.857 437.888 870.437C437.156 870.017 436.58 869.423 436.16 868.655C435.74 867.875 435.53 866.975 435.53 865.955C435.53 864.935 435.734 864.041 436.142 863.273C436.55 862.505 437.12 861.917 437.852 861.509C438.596 861.089 439.448 860.879 440.408 860.879C441.344 860.879 442.172 861.083 442.892 861.491C443.612 861.899 444.164 862.463 444.548 863.183C444.944 863.891 445.142 864.695 445.142 865.595ZM443.45 865.253C443.45 864.629 443.312 864.095 443.036 863.651C442.76 863.195 442.382 862.853 441.902 862.625C441.434 862.385 440.912 862.265 440.336 862.265C439.508 862.265 438.8 862.529 438.212 863.057C437.636 863.585 437.306 864.317 437.222 865.253H443.45Z"
                            fill="#383E45" />
                    </g>
                    <g id="Group 53">
                        <path id="Vector_11"
                            d="M578.127 884.518H492.356C491.604 884.518 490.994 885.644 490.994 887.033V889.549C490.994 890.938 491.604 892.064 492.356 892.064H578.127C578.879 892.064 579.488 890.938 579.488 889.549V887.033C579.488 885.644 578.879 884.518 578.127 884.518Z"
                            fill="#D9D9D9" />
                        <path id="Feature_4"
                            d="M509.546 858.359V859.691H504.092V863.921H508.52V865.253H504.092V870.905H502.454V858.359H509.546ZM520.525 865.595C520.525 865.907 520.507 866.237 520.471 866.585H512.587C512.647 867.557 512.977 868.319 513.577 868.871C514.189 869.411 514.927 869.681 515.791 869.681C516.499 869.681 517.087 869.519 517.555 869.195C518.035 868.859 518.371 868.415 518.563 867.863H520.327C520.063 868.811 519.535 869.585 518.743 870.185C517.951 870.773 516.967 871.067 515.791 871.067C514.855 871.067 514.015 870.857 513.271 870.437C512.539 870.017 511.963 869.423 511.543 868.655C511.123 867.875 510.913 866.975 510.913 865.955C510.913 864.935 511.117 864.041 511.525 863.273C511.933 862.505 512.503 861.917 513.235 861.509C513.979 861.089 514.831 860.879 515.791 860.879C516.727 860.879 517.555 861.083 518.275 861.491C518.995 861.899 519.547 862.463 519.931 863.183C520.327 863.891 520.525 864.695 520.525 865.595ZM518.833 865.253C518.833 864.629 518.695 864.095 518.419 863.651C518.143 863.195 517.765 862.853 517.285 862.625C516.817 862.385 516.295 862.265 515.719 862.265C514.891 862.265 514.183 862.529 513.595 863.057C513.019 863.585 512.689 864.317 512.605 865.253H518.833ZM522.075 865.937C522.075 864.929 522.279 864.047 522.687 863.291C523.095 862.523 523.653 861.929 524.361 861.509C525.081 861.089 525.879 860.879 526.755 860.879C527.619 860.879 528.369 861.065 529.005 861.437C529.641 861.809 530.115 862.277 530.427 862.841V861.041H532.083V870.905H530.427V869.069C530.103 869.645 529.617 870.125 528.969 870.509C528.333 870.881 527.589 871.067 526.737 871.067C525.861 871.067 525.069 870.851 524.361 870.419C523.653 869.987 523.095 869.381 522.687 868.601C522.279 867.821 522.075 866.933 522.075 865.937ZM530.427 865.955C530.427 865.211 530.277 864.563 529.977 864.011C529.677 863.459 529.269 863.039 528.753 862.751C528.249 862.451 527.691 862.301 527.079 862.301C526.467 862.301 525.909 862.445 525.405 862.733C524.901 863.021 524.499 863.441 524.199 863.993C523.899 864.545 523.749 865.193 523.749 865.937C523.749 866.693 523.899 867.353 524.199 867.917C524.499 868.469 524.901 868.895 525.405 869.195C525.909 869.483 526.467 869.627 527.079 869.627C527.691 869.627 528.249 869.483 528.753 869.195C529.269 868.895 529.677 868.469 529.977 867.917C530.277 867.353 530.427 866.699 530.427 865.955ZM536.849 862.391V868.205C536.849 868.685 536.951 869.027 537.155 869.231C537.359 869.423 537.713 869.519 538.217 869.519H539.423V870.905H537.947C537.035 870.905 536.351 870.695 535.895 870.275C535.439 869.855 535.211 869.165 535.211 868.205V862.391H533.933V861.041H535.211V858.557H536.849V861.041H539.423V862.391H536.849ZM550.155 861.041V870.905H548.517V869.447C548.205 869.951 547.767 870.347 547.203 870.635C546.651 870.911 546.039 871.049 545.367 871.049C544.599 871.049 543.909 870.893 543.297 870.581C542.685 870.257 542.199 869.777 541.839 869.141C541.491 868.505 541.317 867.731 541.317 866.819V861.041H542.937V866.603C542.937 867.575 543.183 868.325 543.675 868.853C544.167 869.369 544.839 869.627 545.691 869.627C546.567 869.627 547.257 869.357 547.761 868.817C548.265 868.277 548.517 867.491 548.517 866.459V861.041H550.155ZM554.559 862.643C554.847 862.079 555.255 861.641 555.783 861.329C556.323 861.017 556.977 860.861 557.745 860.861V862.553H557.313C555.477 862.553 554.559 863.549 554.559 865.541V870.905H552.921V861.041H554.559V862.643ZM568.636 865.595C568.636 865.907 568.618 866.237 568.582 866.585H560.698C560.758 867.557 561.088 868.319 561.688 868.871C562.3 869.411 563.038 869.681 563.902 869.681C564.61 869.681 565.198 869.519 565.666 869.195C566.146 868.859 566.482 868.415 566.674 867.863H568.438C568.174 868.811 567.646 869.585 566.854 870.185C566.062 870.773 565.078 871.067 563.902 871.067C562.966 871.067 562.126 870.857 561.382 870.437C560.65 870.017 560.074 869.423 559.654 868.655C559.234 867.875 559.024 866.975 559.024 865.955C559.024 864.935 559.228 864.041 559.636 863.273C560.044 862.505 560.614 861.917 561.346 861.509C562.09 861.089 562.942 860.879 563.902 860.879C564.838 860.879 565.666 861.083 566.386 861.491C567.106 861.899 567.658 862.463 568.042 863.183C568.438 863.891 568.636 864.695 568.636 865.595ZM566.944 865.253C566.944 864.629 566.806 864.095 566.53 863.651C566.254 863.195 565.876 862.853 565.396 862.625C564.928 862.385 564.406 862.265 563.83 862.265C563.002 862.265 562.294 862.529 561.706 863.057C561.13 863.585 560.8 864.317 560.716 865.253H566.944Z"
                            fill="#383E45" />
                    </g>
                </g>
            </g>
            <g id="Group 108">
                <rect id="Rectangle 118" y="585" width="700" height="230" fill="#383E45" />
                <g id="Group 107">
                    <path id="Feature_5"
                        d="M106.178 654.049H107.543V649.339H111.233V648.229H107.543V644.704H112.088V643.594H106.178V654.049ZM117.232 646.849C118.642 646.849 119.842 647.734 119.827 649.339H114.637C114.787 647.734 115.897 646.849 117.232 646.849ZM121.072 651.514H119.602C119.302 652.399 118.522 653.029 117.292 653.029C115.897 653.029 114.727 652.114 114.622 650.449H121.192C121.222 650.164 121.237 649.924 121.237 649.624C121.237 647.374 119.677 645.694 117.292 645.694C114.892 645.694 113.227 647.329 113.227 649.924C113.227 652.534 114.952 654.184 117.292 654.184C119.332 654.184 120.652 653.014 121.072 651.514ZM122.529 649.909C122.529 652.459 124.224 654.184 126.414 654.184C127.929 654.184 128.994 653.404 129.489 652.519V654.049H130.869V645.829H129.489V647.329C129.009 646.474 127.959 645.694 126.429 645.694C124.224 645.694 122.529 647.344 122.529 649.909ZM129.489 649.924C129.489 651.859 128.199 652.984 126.699 652.984C125.199 652.984 123.924 651.844 123.924 649.909C123.924 647.974 125.199 646.879 126.699 646.879C128.199 646.879 129.489 648.019 129.489 649.924ZM133.476 651.799C133.476 653.449 134.301 654.049 135.756 654.049H136.986V652.894H135.981C135.141 652.894 134.841 652.609 134.841 651.799V646.954H136.986V645.829H134.841V643.759H133.476V645.829H132.411V646.954H133.476V651.799ZM145.929 645.829H144.564V650.344C144.564 652.114 143.619 652.984 142.209 652.984C140.829 652.984 139.914 652.129 139.914 650.464V645.829H138.564V650.644C138.564 652.999 140.049 654.169 141.939 654.169C143.034 654.169 144.039 653.689 144.564 652.834V654.049H145.929V645.829ZM149.599 649.579C149.599 647.674 150.589 647.089 151.894 647.089H152.254V645.679C150.949 645.679 150.064 646.249 149.599 647.164V645.829H148.234V654.049H149.599V649.579ZM157.325 646.849C158.735 646.849 159.935 647.734 159.92 649.339H154.73C154.88 647.734 155.99 646.849 157.325 646.849ZM161.165 651.514H159.695C159.395 652.399 158.615 653.029 157.385 653.029C155.99 653.029 154.82 652.114 154.715 650.449H161.285C161.315 650.164 161.33 649.924 161.33 649.624C161.33 647.374 159.77 645.694 157.385 645.694C154.985 645.694 153.32 647.329 153.32 649.924C153.32 652.534 155.045 654.184 157.385 654.184C159.425 654.184 160.745 653.014 161.165 651.514Z"
                        fill="white" />
                    <rect id="Rectangle 118_2" x="105" y="666" width="246" height="3" rx="1.5"
                        fill="white" />
                    <rect id="Rectangle 124" x="105" y="686" width="246" height="4" rx="2"
                        fill="white" />
                    <rect id="Rectangle 126" x="105" y="707" width="246" height="3" rx="1.5"
                        fill="white" />
                    <rect id="Rectangle 123" x="105" y="676" width="246" height="3" rx="1.5"
                        fill="white" />
                    <rect id="Rectangle 125" x="105" y="697" width="246" height="3" rx="1.5"
                        fill="white" />
                    <rect id="Rectangle 127" x="105" y="717" width="246" height="3" rx="1.5"
                        fill="white" />
                    <rect id="Rectangle 128" x="105" y="732.696" width="50.0527" height="18.7739"
                        fill="#D9D9D9" />
                </g>
            </g>
            <rect id="Rectangle 130" y="1401" width="700" height="260" fill="url(#theme_viin_manufacturing_automotive_parallax_id)" />
            <g id="Group 236">
                <rect id="Rectangle 129" y="938" width="700" height="185.197" fill="url(#theme_viin_manufacturing_automotive_cover_id)" />
                <g id="Group 114">
                    <path id="Feature_6"
                        d="M313.571 1003.89H315.391V997.614H320.311V996.134H315.391V991.434H321.451V989.954H313.571V1003.89ZM328.309 994.294C330.189 994.294 331.789 995.474 331.769 997.614H324.849C325.049 995.474 326.529 994.294 328.309 994.294ZM333.429 1000.51H331.469C331.069 1001.69 330.029 1002.53 328.389 1002.53C326.529 1002.53 324.969 1001.31 324.829 999.094H333.589C333.629 998.714 333.649 998.394 333.649 997.994C333.649 994.994 331.569 992.754 328.389 992.754C325.189 992.754 322.969 994.934 322.969 998.394C322.969 1001.87 325.269 1004.07 328.389 1004.07C331.109 1004.07 332.869 1002.51 333.429 1000.51ZM335.372 998.374C335.372 1001.77 337.632 1004.07 340.552 1004.07C342.572 1004.07 343.992 1003.03 344.652 1001.85V1003.89H346.492V992.934H344.652V994.934C344.012 993.794 342.612 992.754 340.572 992.754C337.632 992.754 335.372 994.954 335.372 998.374ZM344.652 998.394C344.652 1000.97 342.932 1002.47 340.932 1002.47C338.932 1002.47 337.232 1000.95 337.232 998.374C337.232 995.794 338.932 994.334 340.932 994.334C342.932 994.334 344.652 995.854 344.652 998.394ZM349.967 1000.89C349.967 1003.09 351.067 1003.89 353.007 1003.89H354.647V1002.35H353.307C352.187 1002.35 351.787 1001.97 351.787 1000.89V994.434H354.647V992.934H351.787V990.174H349.967V992.934H348.547V994.434H349.967V1000.89ZM366.573 992.934H364.753V998.954C364.753 1001.31 363.493 1002.47 361.613 1002.47C359.773 1002.47 358.553 1001.33 358.553 999.114V992.934H356.753V999.354C356.753 1002.49 358.733 1004.05 361.253 1004.05C362.713 1004.05 364.053 1003.41 364.753 1002.27V1003.89H366.573V992.934ZM371.465 997.934C371.465 995.394 372.785 994.614 374.525 994.614H375.005V992.734C373.265 992.734 372.085 993.494 371.465 994.714V992.934H369.645V1003.89H371.465V997.934ZM381.766 994.294C383.646 994.294 385.246 995.474 385.226 997.614H378.306C378.506 995.474 379.986 994.294 381.766 994.294ZM386.886 1000.51H384.926C384.526 1001.69 383.486 1002.53 381.846 1002.53C379.986 1002.53 378.426 1001.31 378.286 999.094H387.046C387.086 998.714 387.106 998.394 387.106 997.994C387.106 994.994 385.026 992.754 381.846 992.754C378.646 992.754 376.426 994.934 376.426 998.394C376.426 1001.87 378.726 1004.07 381.846 1004.07C384.566 1004.07 386.326 1002.51 386.886 1000.51Z"
                        fill="white" />
                    <path id="Vector_12"
                        d="M413 1020.6H287C285.895 1020.6 285 1021.49 285 1022.6V1024.6C285 1025.7 285.895 1026.6 287 1026.6H413C414.105 1026.6 415 1025.7 415 1024.6V1022.6C415 1021.49 414.105 1020.6 413 1020.6Z"
                        fill="white" />
                    <path id="Vector_13"
                        d="M394.1 1034.6H305.9C305.127 1034.6 304.5 1035.49 304.5 1036.6V1038.6C304.5 1039.7 305.127 1040.6 305.9 1040.6H394.1C394.873 1040.6 395.5 1039.7 395.5 1038.6V1036.6C395.5 1035.49 394.873 1034.6 394.1 1034.6Z"
                        fill="white" />
                    <rect id="Rectangle 130_2" x="318.113" y="1055.3" width="63.7744"
                        height="19.5926" fill="#3AADAA" />
                </g>
            </g>
            <g id="Group 106">
                <g id="Group 102">
                    <circle id="Ellipse 26" cx="133.476" cy="1213.48" r="29.4759" fill="#D9D9D9" />
                    <g id="Group 101">
                        <path id="Feature_7"
                            d="M181.659 1202.15H183.024V1197.44H186.714V1196.33H183.024V1192.8H187.569V1191.69H181.659V1202.15ZM192.713 1194.95C194.123 1194.95 195.323 1195.83 195.308 1197.44H190.118C190.267 1195.83 191.378 1194.95 192.713 1194.95ZM196.553 1199.61H195.083C194.783 1200.5 194.003 1201.13 192.773 1201.13C191.378 1201.13 190.208 1200.21 190.103 1198.55H196.673C196.703 1198.26 196.718 1198.02 196.718 1197.72C196.718 1195.47 195.158 1193.79 192.773 1193.79C190.373 1193.79 188.708 1195.43 188.708 1198.02C188.708 1200.63 190.433 1202.28 192.773 1202.28C194.813 1202.28 196.133 1201.11 196.553 1199.61ZM198.009 1198.01C198.009 1200.56 199.704 1202.28 201.894 1202.28C203.409 1202.28 204.474 1201.5 204.969 1200.62V1202.15H206.349V1193.93H204.969V1195.43C204.489 1194.57 203.439 1193.79 201.909 1193.79C199.704 1193.79 198.009 1195.44 198.009 1198.01ZM204.969 1198.02C204.969 1199.96 203.679 1201.08 202.179 1201.08C200.679 1201.08 199.404 1199.94 199.404 1198.01C199.404 1196.07 200.679 1194.98 202.179 1194.98C203.679 1194.98 204.969 1196.12 204.969 1198.02ZM208.956 1199.9C208.956 1201.55 209.781 1202.15 211.236 1202.15H212.466V1200.99H211.461C210.621 1200.99 210.321 1200.71 210.321 1199.9V1195.05H212.466V1193.93H210.321V1191.86H208.956V1193.93H207.891V1195.05H208.956V1199.9ZM221.41 1193.93H220.045V1198.44C220.045 1200.21 219.1 1201.08 217.69 1201.08C216.31 1201.08 215.395 1200.23 215.395 1198.56V1193.93H214.045V1198.74C214.045 1201.1 215.53 1202.27 217.42 1202.27C218.515 1202.27 219.52 1201.79 220.045 1200.93V1202.15H221.41V1193.93ZM225.08 1197.68C225.08 1195.77 226.07 1195.19 227.375 1195.19H227.735V1193.78C226.43 1193.78 225.545 1194.35 225.08 1195.26V1193.93H223.715V1202.15H225.08V1197.68ZM232.805 1194.95C234.215 1194.95 235.415 1195.83 235.4 1197.44H230.21C230.36 1195.83 231.47 1194.95 232.805 1194.95ZM236.645 1199.61H235.175C234.875 1200.5 234.095 1201.13 232.865 1201.13C231.47 1201.13 230.3 1200.21 230.195 1198.55H236.765C236.795 1198.26 236.81 1198.02 236.81 1197.72C236.81 1195.47 235.25 1193.79 232.865 1193.79C230.465 1193.79 228.8 1195.43 228.8 1198.02C228.8 1200.63 230.525 1202.28 232.865 1202.28C234.905 1202.28 236.225 1201.11 236.645 1199.61Z"
                            fill="#383E45" />
                        <path id="Vector_14"
                            d="M308.48 1210.48H182.48C181.376 1210.48 180.48 1211.37 180.48 1212.48V1214.48C180.48 1215.58 181.376 1216.48 182.48 1216.48H308.48C309.585 1216.48 310.48 1215.58 310.48 1214.48V1212.48C310.48 1211.37 309.585 1210.48 308.48 1210.48Z"
                            fill="#D9D9D9" />
                        <path id="Vector_15"
                            d="M308.48 1220.81H182.48C181.376 1220.81 180.48 1221.7 180.48 1222.81V1224.81C180.48 1225.91 181.376 1226.81 182.48 1226.81H308.48C309.585 1226.81 310.48 1225.91 310.48 1224.81V1222.81C310.48 1221.7 309.585 1220.81 308.48 1220.81Z"
                            fill="#D9D9D9" />
                        <path id="Vector_16"
                            d="M308.48 1231.14H182.48C181.376 1231.14 180.48 1232.03 180.48 1233.14V1235.14C180.48 1236.24 181.376 1237.14 182.48 1237.14H308.48C309.585 1237.14 310.48 1236.24 310.48 1235.14V1233.14C310.48 1232.03 309.585 1231.14 308.48 1231.14Z"
                            fill="#D9D9D9" />
                    </g>
                </g>
                <g id="Group 103">
                    <circle id="Ellipse 26_2" cx="133.476" cy="1316.83" r="29.4759" fill="#D9D9D9" />
                    <g id="Group 101_2">
                        <path id="Feature_8"
                            d="M181.659 1305.5H183.024V1300.79H186.714V1299.68H183.024V1296.16H187.569V1295.05H181.659V1305.5ZM192.713 1298.3C194.123 1298.3 195.323 1299.19 195.308 1300.79H190.118C190.267 1299.19 191.378 1298.3 192.713 1298.3ZM196.553 1302.97H195.083C194.783 1303.85 194.003 1304.48 192.773 1304.48C191.378 1304.48 190.208 1303.57 190.103 1301.9H196.673C196.703 1301.62 196.718 1301.38 196.718 1301.08C196.718 1298.83 195.158 1297.15 192.773 1297.15C190.373 1297.15 188.708 1298.78 188.708 1301.38C188.708 1303.99 190.433 1305.64 192.773 1305.64C194.813 1305.64 196.133 1304.47 196.553 1302.97ZM198.009 1301.36C198.009 1303.91 199.704 1305.64 201.894 1305.64C203.409 1305.64 204.474 1304.86 204.969 1303.97V1305.5H206.349V1297.28H204.969V1298.78C204.489 1297.93 203.439 1297.15 201.909 1297.15C199.704 1297.15 198.009 1298.8 198.009 1301.36ZM204.969 1301.38C204.969 1303.31 203.679 1304.44 202.179 1304.44C200.679 1304.44 199.404 1303.3 199.404 1301.36C199.404 1299.43 200.679 1298.33 202.179 1298.33C203.679 1298.33 204.969 1299.47 204.969 1301.38ZM208.956 1303.25C208.956 1304.9 209.781 1305.5 211.236 1305.5H212.466V1304.35H211.461C210.621 1304.35 210.321 1304.06 210.321 1303.25V1298.41H212.466V1297.28H210.321V1295.21H208.956V1297.28H207.891V1298.41H208.956V1303.25ZM221.41 1297.28H220.045V1301.8C220.045 1303.57 219.1 1304.44 217.69 1304.44C216.31 1304.44 215.395 1303.58 215.395 1301.92V1297.28H214.045V1302.1C214.045 1304.45 215.53 1305.62 217.42 1305.62C218.515 1305.62 219.52 1305.14 220.045 1304.29V1305.5H221.41V1297.28ZM225.08 1301.03C225.08 1299.13 226.07 1298.54 227.375 1298.54H227.735V1297.13C226.43 1297.13 225.545 1297.7 225.08 1298.62V1297.28H223.715V1305.5H225.08V1301.03ZM232.805 1298.3C234.215 1298.3 235.415 1299.19 235.4 1300.79H230.21C230.36 1299.19 231.47 1298.3 232.805 1298.3ZM236.645 1302.97H235.175C234.875 1303.85 234.095 1304.48 232.865 1304.48C231.47 1304.48 230.3 1303.57 230.195 1301.9H236.765C236.795 1301.62 236.81 1301.38 236.81 1301.08C236.81 1298.83 235.25 1297.15 232.865 1297.15C230.465 1297.15 228.8 1298.78 228.8 1301.38C228.8 1303.99 230.525 1305.64 232.865 1305.64C234.905 1305.64 236.225 1304.47 236.645 1302.97Z"
                            fill="#383E45" />
                        <path id="Vector_17"
                            d="M308.48 1313.83H182.48C181.376 1313.83 180.48 1314.73 180.48 1315.83V1317.83C180.48 1318.94 181.376 1319.83 182.48 1319.83H308.48C309.585 1319.83 310.48 1318.94 310.48 1317.83V1315.83C310.48 1314.73 309.585 1313.83 308.48 1313.83Z"
                            fill="#D9D9D9" />
                        <path id="Vector_18"
                            d="M308.48 1324.16H182.48C181.376 1324.16 180.48 1325.06 180.48 1326.16V1328.16C180.48 1329.27 181.376 1330.16 182.48 1330.16H308.48C309.585 1330.16 310.48 1329.27 310.48 1328.16V1326.16C310.48 1325.06 309.585 1324.16 308.48 1324.16Z"
                            fill="#D9D9D9" />
                        <path id="Vector_19"
                            d="M308.48 1334.49H182.48C181.376 1334.49 180.48 1335.39 180.48 1336.49V1338.49C180.48 1339.6 181.376 1340.49 182.48 1340.49H308.48C309.585 1340.49 310.48 1339.6 310.48 1338.49V1336.49C310.48 1335.39 309.585 1334.49 308.48 1334.49Z"
                            fill="#D9D9D9" />
                    </g>
                </g>
                <g id="Group 104">
                    <circle id="Ellipse 26_3" cx="419.476" cy="1316.83" r="29.4759" fill="#D9D9D9" />
                    <g id="Group 101_3">
                        <path id="Feature_9"
                            d="M467.659 1305.5H469.024V1300.79H472.714V1299.68H469.024V1296.16H473.569V1295.05H467.659V1305.5ZM478.713 1298.3C480.123 1298.3 481.323 1299.19 481.308 1300.79H476.118C476.267 1299.19 477.378 1298.3 478.713 1298.3ZM482.553 1302.97H481.083C480.783 1303.85 480.003 1304.48 478.773 1304.48C477.378 1304.48 476.208 1303.57 476.103 1301.9H482.673C482.703 1301.62 482.718 1301.38 482.718 1301.08C482.718 1298.83 481.158 1297.15 478.773 1297.15C476.373 1297.15 474.708 1298.78 474.708 1301.38C474.708 1303.99 476.433 1305.64 478.773 1305.64C480.813 1305.64 482.133 1304.47 482.553 1302.97ZM484.009 1301.36C484.009 1303.91 485.704 1305.64 487.894 1305.64C489.409 1305.64 490.474 1304.86 490.969 1303.97V1305.5H492.349V1297.28H490.969V1298.78C490.489 1297.93 489.439 1297.15 487.909 1297.15C485.704 1297.15 484.009 1298.8 484.009 1301.36ZM490.969 1301.38C490.969 1303.31 489.679 1304.44 488.179 1304.44C486.679 1304.44 485.404 1303.3 485.404 1301.36C485.404 1299.43 486.679 1298.33 488.179 1298.33C489.679 1298.33 490.969 1299.47 490.969 1301.38ZM494.956 1303.25C494.956 1304.9 495.781 1305.5 497.236 1305.5H498.466V1304.35H497.461C496.621 1304.35 496.321 1304.06 496.321 1303.25V1298.41H498.466V1297.28H496.321V1295.21H494.956V1297.28H493.891V1298.41H494.956V1303.25ZM507.41 1297.28H506.045V1301.8C506.045 1303.57 505.1 1304.44 503.69 1304.44C502.31 1304.44 501.395 1303.58 501.395 1301.92V1297.28H500.045V1302.1C500.045 1304.45 501.53 1305.62 503.42 1305.62C504.515 1305.62 505.52 1305.14 506.045 1304.29V1305.5H507.41V1297.28ZM511.08 1301.03C511.08 1299.13 512.07 1298.54 513.375 1298.54H513.735V1297.13C512.43 1297.13 511.545 1297.7 511.08 1298.62V1297.28H509.715V1305.5H511.08V1301.03ZM518.805 1298.3C520.215 1298.3 521.415 1299.19 521.4 1300.79H516.21C516.36 1299.19 517.47 1298.3 518.805 1298.3ZM522.645 1302.97H521.175C520.875 1303.85 520.095 1304.48 518.865 1304.48C517.47 1304.48 516.3 1303.57 516.195 1301.9H522.765C522.795 1301.62 522.81 1301.38 522.81 1301.08C522.81 1298.83 521.25 1297.15 518.865 1297.15C516.465 1297.15 514.8 1298.78 514.8 1301.38C514.8 1303.99 516.525 1305.64 518.865 1305.64C520.905 1305.64 522.225 1304.47 522.645 1302.97Z"
                            fill="#383E45" />
                        <path id="Vector_20"
                            d="M594.48 1313.83H468.48C467.376 1313.83 466.48 1314.73 466.48 1315.83V1317.83C466.48 1318.94 467.376 1319.83 468.48 1319.83H594.48C595.585 1319.83 596.48 1318.94 596.48 1317.83V1315.83C596.48 1314.73 595.585 1313.83 594.48 1313.83Z"
                            fill="#D9D9D9" />
                        <path id="Vector_21"
                            d="M594.48 1324.16H468.48C467.376 1324.16 466.48 1325.06 466.48 1326.16V1328.16C466.48 1329.27 467.376 1330.16 468.48 1330.16H594.48C595.585 1330.16 596.48 1329.27 596.48 1328.16V1326.16C596.48 1325.06 595.585 1324.16 594.48 1324.16Z"
                            fill="#D9D9D9" />
                        <path id="Vector_22"
                            d="M594.48 1334.49H468.48C467.376 1334.49 466.48 1335.39 466.48 1336.49V1338.49C466.48 1339.6 467.376 1340.49 468.48 1340.49H594.48C595.585 1340.49 596.48 1339.6 596.48 1338.49V1336.49C596.48 1335.39 595.585 1334.49 594.48 1334.49Z"
                            fill="#D9D9D9" />
                    </g>
                </g>
                <g id="Group 105">
                    <circle id="Ellipse 26_4" cx="419.476" cy="1213.48" r="29.4759" fill="#D9D9D9" />
                    <g id="Group 101_4">
                        <path id="Feature_10"
                            d="M467.659 1202.15H469.024V1197.44H472.714V1196.33H469.024V1192.8H473.569V1191.69H467.659V1202.15ZM478.713 1194.95C480.123 1194.95 481.323 1195.83 481.308 1197.44H476.118C476.267 1195.83 477.378 1194.95 478.713 1194.95ZM482.553 1199.61H481.083C480.783 1200.5 480.003 1201.13 478.773 1201.13C477.378 1201.13 476.208 1200.21 476.103 1198.55H482.673C482.703 1198.26 482.718 1198.02 482.718 1197.72C482.718 1195.47 481.158 1193.79 478.773 1193.79C476.373 1193.79 474.708 1195.43 474.708 1198.02C474.708 1200.63 476.433 1202.28 478.773 1202.28C480.813 1202.28 482.133 1201.11 482.553 1199.61ZM484.009 1198.01C484.009 1200.56 485.704 1202.28 487.894 1202.28C489.409 1202.28 490.474 1201.5 490.969 1200.62V1202.15H492.349V1193.93H490.969V1195.43C490.489 1194.57 489.439 1193.79 487.909 1193.79C485.704 1193.79 484.009 1195.44 484.009 1198.01ZM490.969 1198.02C490.969 1199.96 489.679 1201.08 488.179 1201.08C486.679 1201.08 485.404 1199.94 485.404 1198.01C485.404 1196.07 486.679 1194.98 488.179 1194.98C489.679 1194.98 490.969 1196.12 490.969 1198.02ZM494.956 1199.9C494.956 1201.55 495.781 1202.15 497.236 1202.15H498.466V1200.99H497.461C496.621 1200.99 496.321 1200.71 496.321 1199.9V1195.05H498.466V1193.93H496.321V1191.86H494.956V1193.93H493.891V1195.05H494.956V1199.9ZM507.41 1193.93H506.045V1198.44C506.045 1200.21 505.1 1201.08 503.69 1201.08C502.31 1201.08 501.395 1200.23 501.395 1198.56V1193.93H500.045V1198.74C500.045 1201.1 501.53 1202.27 503.42 1202.27C504.515 1202.27 505.52 1201.79 506.045 1200.93V1202.15H507.41V1193.93ZM511.08 1197.68C511.08 1195.77 512.07 1195.19 513.375 1195.19H513.735V1193.78C512.43 1193.78 511.545 1194.35 511.08 1195.26V1193.93H509.715V1202.15H511.08V1197.68ZM518.805 1194.95C520.215 1194.95 521.415 1195.83 521.4 1197.44H516.21C516.36 1195.83 517.47 1194.95 518.805 1194.95ZM522.645 1199.61H521.175C520.875 1200.5 520.095 1201.13 518.865 1201.13C517.47 1201.13 516.3 1200.21 516.195 1198.55H522.765C522.795 1198.26 522.81 1198.02 522.81 1197.72C522.81 1195.47 521.25 1193.79 518.865 1193.79C516.465 1193.79 514.8 1195.43 514.8 1198.02C514.8 1200.63 516.525 1202.28 518.865 1202.28C520.905 1202.28 522.225 1201.11 522.645 1199.61Z"
                            fill="#383E45" />
                        <path id="Vector_23"
                            d="M594.48 1210.48H468.48C467.376 1210.48 466.48 1211.37 466.48 1212.48V1214.48C466.48 1215.58 467.376 1216.48 468.48 1216.48H594.48C595.585 1216.48 596.48 1215.58 596.48 1214.48V1212.48C596.48 1211.37 595.585 1210.48 594.48 1210.48Z"
                            fill="#D9D9D9" />
                        <path id="Vector_24"
                            d="M594.48 1220.81H468.48C467.376 1220.81 466.48 1221.7 466.48 1222.81V1224.81C466.48 1225.91 467.376 1226.81 468.48 1226.81H594.48C595.585 1226.81 596.48 1225.91 596.48 1224.81V1222.81C596.48 1221.7 595.585 1220.81 594.48 1220.81Z"
                            fill="#D9D9D9" />
                        <path id="Vector_25"
                            d="M594.48 1231.14H468.48C467.376 1231.14 466.48 1232.03 466.48 1233.14V1235.14C466.48 1236.24 467.376 1237.14 468.48 1237.14H594.48C595.585 1237.14 596.48 1236.24 596.48 1235.14V1233.14C596.48 1232.03 595.585 1231.14 594.48 1231.14Z"
                            fill="#D9D9D9" />
                    </g>
                </g>
            </g>
            <g id="Group 235">
                <g id="Group 112">
                    <g id="Group 92">
                        <rect id="Rectangle 111" x="105" y="373" width="153.644" height="99"
                            fill="url(#theme_viin_manufacturing_automotive_default_three_column_1_id)" />
                        <rect id="Rectangle 112" x="105.5" y="373.5" width="152.644"
                            height="171.278" stroke="#D9D9D9" />
                    </g>
                    <path id="Feature #1"
                        d="M154.157 480.636V481.524H150.521V484.344H153.473V485.232H150.521V489H149.429V480.636H154.157ZM161.476 485.46C161.476 485.668 161.464 485.888 161.44 486.12H156.184C156.224 486.768 156.444 487.276 156.844 487.644C157.252 488.004 157.744 488.184 158.32 488.184C158.792 488.184 159.184 488.076 159.496 487.86C159.816 487.636 160.04 487.34 160.168 486.972H161.344C161.168 487.604 160.816 488.12 160.288 488.52C159.76 488.912 159.104 489.108 158.32 489.108C157.696 489.108 157.136 488.968 156.64 488.688C156.152 488.408 155.768 488.012 155.488 487.5C155.208 486.98 155.068 486.38 155.068 485.7C155.068 485.02 155.204 484.424 155.476 483.912C155.748 483.4 156.128 483.008 156.616 482.736C157.112 482.456 157.68 482.316 158.32 482.316C158.944 482.316 159.496 482.452 159.976 482.724C160.456 482.996 160.824 483.372 161.08 483.852C161.344 484.324 161.476 484.86 161.476 485.46ZM160.348 485.232C160.348 484.816 160.256 484.46 160.072 484.164C159.888 483.86 159.636 483.632 159.316 483.48C159.004 483.32 158.656 483.24 158.272 483.24C157.72 483.24 157.248 483.416 156.856 483.768C156.472 484.12 156.252 484.608 156.196 485.232H160.348ZM162.509 485.688C162.509 485.016 162.645 484.428 162.917 483.924C163.189 483.412 163.561 483.016 164.033 482.736C164.513 482.456 165.045 482.316 165.629 482.316C166.205 482.316 166.705 482.44 167.129 482.688C167.553 482.936 167.869 483.248 168.077 483.624V482.424H169.181V489H168.077V487.776C167.861 488.16 167.537 488.48 167.105 488.736C166.681 488.984 166.185 489.108 165.617 489.108C165.033 489.108 164.505 488.964 164.033 488.676C163.561 488.388 163.189 487.984 162.917 487.464C162.645 486.944 162.509 486.352 162.509 485.688ZM168.077 485.7C168.077 485.204 167.977 484.772 167.777 484.404C167.577 484.036 167.305 483.756 166.961 483.564C166.625 483.364 166.253 483.264 165.845 483.264C165.437 483.264 165.065 483.36 164.729 483.552C164.393 483.744 164.125 484.024 163.925 484.392C163.725 484.76 163.625 485.192 163.625 485.688C163.625 486.192 163.725 486.632 163.925 487.008C164.125 487.376 164.393 487.66 164.729 487.86C165.065 488.052 165.437 488.148 165.845 488.148C166.253 488.148 166.625 488.052 166.961 487.86C167.305 487.66 167.577 487.376 167.777 487.008C167.977 486.632 168.077 486.196 168.077 485.7ZM172.359 483.324V487.2C172.359 487.52 172.427 487.748 172.563 487.884C172.699 488.012 172.935 488.076 173.271 488.076H174.075V489H173.091C172.483 489 172.027 488.86 171.723 488.58C171.419 488.3 171.267 487.84 171.267 487.2V483.324H170.415V482.424H171.267V480.768H172.359V482.424H174.075V483.324H172.359ZM181.23 482.424V489H180.138V488.028C179.93 488.364 179.638 488.628 179.262 488.82C178.894 489.004 178.486 489.096 178.038 489.096C177.526 489.096 177.066 488.992 176.658 488.784C176.25 488.568 175.926 488.248 175.686 487.824C175.454 487.4 175.338 486.884 175.338 486.276V482.424H176.418V486.132C176.418 486.78 176.582 487.28 176.91 487.632C177.238 487.976 177.686 488.148 178.254 488.148C178.838 488.148 179.298 487.968 179.634 487.608C179.97 487.248 180.138 486.724 180.138 486.036V482.424H181.23ZM184.166 483.492C184.358 483.116 184.63 482.824 184.982 482.616C185.342 482.408 185.778 482.304 186.29 482.304V483.432H186.002C184.778 483.432 184.166 484.096 184.166 485.424V489H183.074V482.424H184.166V483.492ZM193.55 485.46C193.55 485.668 193.538 485.888 193.514 486.12H188.258C188.298 486.768 188.518 487.276 188.918 487.644C189.326 488.004 189.818 488.184 190.394 488.184C190.866 488.184 191.258 488.076 191.57 487.86C191.89 487.636 192.114 487.34 192.242 486.972H193.418C193.242 487.604 192.89 488.12 192.362 488.52C191.834 488.912 191.178 489.108 190.394 489.108C189.77 489.108 189.21 488.968 188.714 488.688C188.226 488.408 187.842 488.012 187.562 487.5C187.282 486.98 187.142 486.38 187.142 485.7C187.142 485.02 187.278 484.424 187.55 483.912C187.822 483.4 188.202 483.008 188.69 482.736C189.186 482.456 189.754 482.316 190.394 482.316C191.018 482.316 191.57 482.452 192.05 482.724C192.53 482.996 192.898 483.372 193.154 483.852C193.418 484.324 193.55 484.86 193.55 485.46ZM192.422 485.232C192.422 484.816 192.33 484.46 192.146 484.164C191.962 483.86 191.71 483.632 191.39 483.48C191.078 483.32 190.73 483.24 190.346 483.24C189.794 483.24 189.322 483.416 188.93 483.768C188.546 484.12 188.326 484.608 188.27 485.232H192.422ZM204.815 483.48L204.359 485.64H206.015V486.6H204.155L203.639 489H202.595L203.111 486.6H200.591L200.075 489H199.031L199.547 486.6H197.663V485.64H199.751L200.207 483.48H198.347V482.52H200.411L200.927 480.12H201.971L201.455 482.52H203.975L204.491 480.12H205.535L205.019 482.52H206.687V483.48H204.815ZM203.771 483.48H201.251L200.795 485.64H203.315L203.771 483.48ZM207.801 481.32V480.324H210.057V489H208.953V481.32H207.801Z"
                        fill="#383E45" />
                    <g id="Group 95">
                        <g id="Frame 6">
                            <rect id="Rectangle 113" x="113.369" y="500" width="128.074"
                                height="3.17728" rx="1.58864" fill="#888888" />
                            <rect id="Rectangle 114" x="113.369" y="508.177" width="128.074"
                                height="3.17728" rx="1.58864" fill="#888888" />
                            <rect id="Rectangle 115" x="113.369" y="516.354" width="128.074"
                                height="3.17728" rx="1.58864" fill="#888888" />
                            <rect id="Rectangle 116" x="113.369" y="524.532" width="128.074"
                                height="3.17728" rx="1.58864" fill="#888888" />
                            <rect id="Rectangle 117" x="113.369" y="532.709" width="128.074"
                                height="3.17728" rx="1.58864" fill="#888888" />
                        </g>
                    </g>
                </g>
                <g id="Group 113">
                    <g id="Group 92_2">
                        <rect id="Rectangle 111_2" x="273.178" y="373" width="153.644" height="99"
                            fill="url(#theme_viin_manufacturing_automotive_default_three_column_2_id)" />
                        <rect id="Rectangle 112_2" x="273.678" y="373.5" width="152.644"
                            height="171.278" stroke="#D9D9D9" />
                    </g>
                    <path id="Feature #1_2"
                        d="M322.335 480.636V481.524H318.699V484.344H321.651V485.232H318.699V489H317.607V480.636H322.335ZM329.654 485.46C329.654 485.668 329.642 485.888 329.618 486.12H324.362C324.402 486.768 324.622 487.276 325.022 487.644C325.43 488.004 325.922 488.184 326.498 488.184C326.97 488.184 327.362 488.076 327.674 487.86C327.994 487.636 328.218 487.34 328.346 486.972H329.522C329.346 487.604 328.994 488.12 328.466 488.52C327.938 488.912 327.282 489.108 326.498 489.108C325.874 489.108 325.314 488.968 324.818 488.688C324.33 488.408 323.946 488.012 323.666 487.5C323.386 486.98 323.246 486.38 323.246 485.7C323.246 485.02 323.382 484.424 323.654 483.912C323.926 483.4 324.306 483.008 324.794 482.736C325.29 482.456 325.858 482.316 326.498 482.316C327.122 482.316 327.674 482.452 328.154 482.724C328.634 482.996 329.002 483.372 329.258 483.852C329.522 484.324 329.654 484.86 329.654 485.46ZM328.526 485.232C328.526 484.816 328.434 484.46 328.25 484.164C328.066 483.86 327.814 483.632 327.494 483.48C327.182 483.32 326.834 483.24 326.45 483.24C325.898 483.24 325.426 483.416 325.034 483.768C324.65 484.12 324.43 484.608 324.374 485.232H328.526ZM330.687 485.688C330.687 485.016 330.823 484.428 331.095 483.924C331.367 483.412 331.739 483.016 332.211 482.736C332.691 482.456 333.223 482.316 333.807 482.316C334.383 482.316 334.883 482.44 335.307 482.688C335.731 482.936 336.047 483.248 336.255 483.624V482.424H337.359V489H336.255V487.776C336.039 488.16 335.715 488.48 335.283 488.736C334.859 488.984 334.363 489.108 333.795 489.108C333.211 489.108 332.683 488.964 332.211 488.676C331.739 488.388 331.367 487.984 331.095 487.464C330.823 486.944 330.687 486.352 330.687 485.688ZM336.255 485.7C336.255 485.204 336.155 484.772 335.955 484.404C335.755 484.036 335.483 483.756 335.139 483.564C334.803 483.364 334.431 483.264 334.023 483.264C333.615 483.264 333.243 483.36 332.907 483.552C332.571 483.744 332.303 484.024 332.103 484.392C331.903 484.76 331.803 485.192 331.803 485.688C331.803 486.192 331.903 486.632 332.103 487.008C332.303 487.376 332.571 487.66 332.907 487.86C333.243 488.052 333.615 488.148 334.023 488.148C334.431 488.148 334.803 488.052 335.139 487.86C335.483 487.66 335.755 487.376 335.955 487.008C336.155 486.632 336.255 486.196 336.255 485.7ZM340.537 483.324V487.2C340.537 487.52 340.605 487.748 340.741 487.884C340.877 488.012 341.113 488.076 341.449 488.076H342.253V489H341.269C340.661 489 340.205 488.86 339.901 488.58C339.597 488.3 339.445 487.84 339.445 487.2V483.324H338.593V482.424H339.445V480.768H340.537V482.424H342.253V483.324H340.537ZM349.408 482.424V489H348.316V488.028C348.108 488.364 347.816 488.628 347.44 488.82C347.072 489.004 346.664 489.096 346.216 489.096C345.704 489.096 345.244 488.992 344.836 488.784C344.428 488.568 344.104 488.248 343.864 487.824C343.632 487.4 343.516 486.884 343.516 486.276V482.424H344.596V486.132C344.596 486.78 344.76 487.28 345.088 487.632C345.416 487.976 345.864 488.148 346.432 488.148C347.016 488.148 347.476 487.968 347.812 487.608C348.148 487.248 348.316 486.724 348.316 486.036V482.424H349.408ZM352.343 483.492C352.535 483.116 352.807 482.824 353.159 482.616C353.519 482.408 353.955 482.304 354.467 482.304V483.432H354.179C352.955 483.432 352.343 484.096 352.343 485.424V489H351.251V482.424H352.343V483.492ZM361.728 485.46C361.728 485.668 361.716 485.888 361.692 486.12H356.436C356.476 486.768 356.696 487.276 357.096 487.644C357.504 488.004 357.996 488.184 358.572 488.184C359.044 488.184 359.436 488.076 359.748 487.86C360.068 487.636 360.292 487.34 360.42 486.972H361.596C361.42 487.604 361.068 488.12 360.54 488.52C360.012 488.912 359.356 489.108 358.572 489.108C357.948 489.108 357.388 488.968 356.892 488.688C356.404 488.408 356.02 488.012 355.74 487.5C355.46 486.98 355.32 486.38 355.32 485.7C355.32 485.02 355.456 484.424 355.728 483.912C356 483.4 356.38 483.008 356.868 482.736C357.364 482.456 357.932 482.316 358.572 482.316C359.196 482.316 359.748 482.452 360.228 482.724C360.708 482.996 361.076 483.372 361.332 483.852C361.596 484.324 361.728 484.86 361.728 485.46ZM360.6 485.232C360.6 484.816 360.508 484.46 360.324 484.164C360.14 483.86 359.888 483.632 359.568 483.48C359.256 483.32 358.908 483.24 358.524 483.24C357.972 483.24 357.5 483.416 357.108 483.768C356.724 484.12 356.504 484.608 356.448 485.232H360.6ZM372.993 483.48L372.537 485.64H374.193V486.6H372.333L371.817 489H370.773L371.289 486.6H368.769L368.253 489H367.209L367.725 486.6H365.841V485.64H367.929L368.385 483.48H366.525V482.52H368.589L369.105 480.12H370.149L369.633 482.52H372.153L372.669 480.12H373.713L373.197 482.52H374.865V483.48H372.993ZM371.949 483.48H369.429L368.973 485.64H371.493L371.949 483.48ZM375.979 481.32V480.324H378.235V489H377.131V481.32H375.979Z"
                        fill="#383E45" />
                    <g id="Group 95_2">
                        <g id="Frame 6_2">
                            <rect id="Rectangle 113_2" x="281.545" y="500" width="128.074"
                                height="3.17728" rx="1.58864" fill="#888888" />
                            <rect id="Rectangle 114_2" x="281.545" y="508.177" width="128.074"
                                height="3.17728" rx="1.58864" fill="#888888" />
                            <rect id="Rectangle 115_2" x="281.545" y="516.354" width="128.074"
                                height="3.17728" rx="1.58864" fill="#888888" />
                            <rect id="Rectangle 116_2" x="281.545" y="524.532" width="128.074"
                                height="3.17728" rx="1.58864" fill="#888888" />
                            <rect id="Rectangle 117_2" x="281.545" y="532.709" width="128.074"
                                height="3.17728" rx="1.58864" fill="#888888" />
                        </g>
                    </g>
                </g>
                <g id="Group 114_2">
                    <g id="Group 92_3">
                        <rect id="Rectangle 111_3" x="441.357" y="373" width="153.644" height="99"
                            fill="url(#theme_viin_manufacturing_automotive_default_three_column_3_id)" />
                        <rect id="Rectangle 112_3" x="441.857" y="373.5" width="152.644"
                            height="171.278" stroke="#D9D9D9" />
                    </g>
                    <path id="Feature #1_3"
                        d="M490.515 480.636V481.524H486.879V484.344H489.831V485.232H486.879V489H485.787V480.636H490.515ZM497.833 485.46C497.833 485.668 497.821 485.888 497.797 486.12H492.541C492.581 486.768 492.801 487.276 493.201 487.644C493.609 488.004 494.101 488.184 494.677 488.184C495.149 488.184 495.541 488.076 495.853 487.86C496.173 487.636 496.397 487.34 496.525 486.972H497.701C497.525 487.604 497.173 488.12 496.645 488.52C496.117 488.912 495.461 489.108 494.677 489.108C494.053 489.108 493.493 488.968 492.997 488.688C492.509 488.408 492.125 488.012 491.845 487.5C491.565 486.98 491.425 486.38 491.425 485.7C491.425 485.02 491.561 484.424 491.833 483.912C492.105 483.4 492.485 483.008 492.973 482.736C493.469 482.456 494.037 482.316 494.677 482.316C495.301 482.316 495.853 482.452 496.333 482.724C496.813 482.996 497.181 483.372 497.437 483.852C497.701 484.324 497.833 484.86 497.833 485.46ZM496.705 485.232C496.705 484.816 496.613 484.46 496.429 484.164C496.245 483.86 495.993 483.632 495.673 483.48C495.361 483.32 495.013 483.24 494.629 483.24C494.077 483.24 493.605 483.416 493.213 483.768C492.829 484.12 492.609 484.608 492.553 485.232H496.705ZM498.867 485.688C498.867 485.016 499.003 484.428 499.275 483.924C499.547 483.412 499.919 483.016 500.391 482.736C500.871 482.456 501.403 482.316 501.987 482.316C502.563 482.316 503.063 482.44 503.487 482.688C503.911 482.936 504.227 483.248 504.435 483.624V482.424H505.539V489H504.435V487.776C504.219 488.16 503.895 488.48 503.463 488.736C503.039 488.984 502.543 489.108 501.975 489.108C501.391 489.108 500.863 488.964 500.391 488.676C499.919 488.388 499.547 487.984 499.275 487.464C499.003 486.944 498.867 486.352 498.867 485.688ZM504.435 485.7C504.435 485.204 504.335 484.772 504.135 484.404C503.935 484.036 503.663 483.756 503.319 483.564C502.983 483.364 502.611 483.264 502.203 483.264C501.795 483.264 501.423 483.36 501.087 483.552C500.751 483.744 500.483 484.024 500.283 484.392C500.083 484.76 499.983 485.192 499.983 485.688C499.983 486.192 500.083 486.632 500.283 487.008C500.483 487.376 500.751 487.66 501.087 487.86C501.423 488.052 501.795 488.148 502.203 488.148C502.611 488.148 502.983 488.052 503.319 487.86C503.663 487.66 503.935 487.376 504.135 487.008C504.335 486.632 504.435 486.196 504.435 485.7ZM508.716 483.324V487.2C508.716 487.52 508.784 487.748 508.92 487.884C509.056 488.012 509.292 488.076 509.628 488.076H510.432V489H509.448C508.84 489 508.384 488.86 508.08 488.58C507.776 488.3 507.624 487.84 507.624 487.2V483.324H506.772V482.424H507.624V480.768H508.716V482.424H510.432V483.324H508.716ZM517.587 482.424V489H516.495V488.028C516.287 488.364 515.995 488.628 515.619 488.82C515.251 489.004 514.843 489.096 514.395 489.096C513.883 489.096 513.423 488.992 513.015 488.784C512.607 488.568 512.283 488.248 512.043 487.824C511.811 487.4 511.695 486.884 511.695 486.276V482.424H512.775V486.132C512.775 486.78 512.939 487.28 513.267 487.632C513.595 487.976 514.043 488.148 514.611 488.148C515.195 488.148 515.655 487.968 515.991 487.608C516.327 487.248 516.495 486.724 516.495 486.036V482.424H517.587ZM520.523 483.492C520.715 483.116 520.987 482.824 521.339 482.616C521.699 482.408 522.135 482.304 522.647 482.304V483.432H522.359C521.135 483.432 520.523 484.096 520.523 485.424V489H519.431V482.424H520.523V483.492ZM529.908 485.46C529.908 485.668 529.896 485.888 529.872 486.12H524.616C524.656 486.768 524.876 487.276 525.276 487.644C525.684 488.004 526.176 488.184 526.752 488.184C527.224 488.184 527.616 488.076 527.928 487.86C528.248 487.636 528.472 487.34 528.6 486.972H529.776C529.6 487.604 529.248 488.12 528.72 488.52C528.192 488.912 527.536 489.108 526.752 489.108C526.128 489.108 525.568 488.968 525.072 488.688C524.584 488.408 524.2 488.012 523.92 487.5C523.64 486.98 523.5 486.38 523.5 485.7C523.5 485.02 523.636 484.424 523.908 483.912C524.18 483.4 524.56 483.008 525.048 482.736C525.544 482.456 526.112 482.316 526.752 482.316C527.376 482.316 527.928 482.452 528.408 482.724C528.888 482.996 529.256 483.372 529.512 483.852C529.776 484.324 529.908 484.86 529.908 485.46ZM528.78 485.232C528.78 484.816 528.688 484.46 528.504 484.164C528.32 483.86 528.068 483.632 527.748 483.48C527.436 483.32 527.088 483.24 526.704 483.24C526.152 483.24 525.68 483.416 525.288 483.768C524.904 484.12 524.684 484.608 524.628 485.232H528.78ZM541.172 483.48L540.716 485.64H542.372V486.6H540.512L539.996 489H538.952L539.468 486.6H536.948L536.432 489H535.388L535.904 486.6H534.02V485.64H536.108L536.564 483.48H534.704V482.52H536.768L537.284 480.12H538.328L537.812 482.52H540.332L540.848 480.12H541.892L541.376 482.52H543.044V483.48H541.172ZM540.128 483.48H537.608L537.152 485.64H539.672L540.128 483.48ZM544.158 481.32V480.324H546.414V489H545.31V481.32H544.158Z"
                        fill="#383E45" />
                    <g id="Group 95_3">
                        <g id="Frame 6_3">
                            <rect id="Rectangle 113_3" x="449.725" y="500" width="128.074"
                                height="3.17728" rx="1.58864" fill="#888888" />
                            <rect id="Rectangle 114_3" x="449.725" y="508.177" width="128.074"
                                height="3.17728" rx="1.58864" fill="#888888" />
                            <rect id="Rectangle 115_3" x="449.725" y="516.354" width="128.074"
                                height="3.17728" rx="1.58864" fill="#888888" />
                            <rect id="Rectangle 116_3" x="449.725" y="524.532" width="128.074"
                                height="3.17728" rx="1.58864" fill="#888888" />
                            <rect id="Rectangle 117_3" x="449.725" y="532.709" width="128.074"
                                height="3.17728" rx="1.58864" fill="#888888" />
                        </g>
                    </g>
                </g>
            </g>
            <rect id="Rectangle 122" x="365" y="623" width="230" height="155" fill="url(#theme_viin_manufacturing_automotive_s_text_image_id)" />
            <g id="Group 241">
                <path id="Vector_26" d="M700 1661H0V1815.44H700V1661Z" fill="black" />
                <path id="Vector_27" d="M700 1790.15H0V1815.44H700V1790.15Z" fill="#3AADAA" />
                <g id="Group 33">
                    <g id="Group 32">
                        <ellipse id="Ellipse 12" cx="449.06" cy="1753.4" rx="10.3375" ry="10.3375"
                            fill="#D9D9D9" />
                        <ellipse id="Ellipse 13" cx="473.718" cy="1753.4" rx="10.3375" ry="10.3375"
                            fill="#D9D9D9" />
                        <ellipse id="Ellipse 14" cx="498.379" cy="1753.4" rx="10.3375" ry="10.3375"
                            fill="#D9D9D9" />
                        <ellipse id="Ellipse 15" cx="575.144" cy="1753.4" rx="10.3375" ry="10.3375"
                            fill="#D9D9D9" />
                    </g>
                    <path id="Feature_11"
                        d="M118.159 1688.95V1689.6H115.481V1691.68H117.655V1692.33H115.481V1695.11H114.677V1688.95H118.159ZM123.549 1692.5C123.549 1692.65 123.54 1692.82 123.522 1692.99H119.651C119.681 1693.46 119.843 1693.84 120.137 1694.11C120.438 1694.37 120.8 1694.51 121.224 1694.51C121.572 1694.51 121.861 1694.43 122.09 1694.27C122.326 1694.1 122.491 1693.89 122.585 1693.61H123.451C123.322 1694.08 123.062 1694.46 122.674 1694.75C122.285 1695.04 121.802 1695.19 121.224 1695.19C120.765 1695.19 120.352 1695.08 119.987 1694.88C119.628 1694.67 119.345 1694.38 119.139 1694C118.932 1693.62 118.829 1693.18 118.829 1692.68C118.829 1692.18 118.929 1691.74 119.13 1691.36C119.33 1690.98 119.61 1690.7 119.969 1690.5C120.335 1690.29 120.753 1690.19 121.224 1690.19C121.684 1690.19 122.09 1690.29 122.444 1690.49C122.797 1690.69 123.068 1690.96 123.257 1691.32C123.451 1691.66 123.549 1692.06 123.549 1692.5ZM122.718 1692.33C122.718 1692.03 122.65 1691.76 122.515 1691.55C122.379 1691.32 122.193 1691.16 121.958 1691.04C121.728 1690.93 121.472 1690.87 121.189 1690.87C120.782 1690.87 120.435 1691 120.146 1691.26C119.863 1691.51 119.701 1691.87 119.66 1692.33H122.718ZM124.31 1692.67C124.31 1692.17 124.41 1691.74 124.61 1691.37C124.81 1690.99 125.084 1690.7 125.432 1690.5C125.785 1690.29 126.177 1690.19 126.607 1690.19C127.031 1690.19 127.4 1690.28 127.712 1690.46C128.024 1690.64 128.257 1690.87 128.41 1691.15V1690.27H129.223V1695.11H128.41V1694.21C128.251 1694.49 128.012 1694.73 127.694 1694.91C127.382 1695.1 127.017 1695.19 126.598 1695.19C126.168 1695.19 125.78 1695.08 125.432 1694.87C125.084 1694.66 124.81 1694.36 124.61 1693.98C124.41 1693.59 124.31 1693.16 124.31 1692.67ZM128.41 1692.68C128.41 1692.31 128.336 1691.99 128.189 1691.72C128.042 1691.45 127.842 1691.25 127.588 1691.11C127.341 1690.96 127.067 1690.88 126.766 1690.88C126.466 1690.88 126.192 1690.95 125.944 1691.1C125.697 1691.24 125.5 1691.44 125.352 1691.71C125.205 1691.99 125.131 1692.3 125.131 1692.67C125.131 1693.04 125.205 1693.36 125.352 1693.64C125.5 1693.91 125.697 1694.12 125.944 1694.27C126.192 1694.41 126.466 1694.48 126.766 1694.48C127.067 1694.48 127.341 1694.41 127.588 1694.27C127.842 1694.12 128.042 1693.91 128.189 1693.64C128.336 1693.36 128.41 1693.04 128.41 1692.68ZM131.563 1690.93V1693.78C131.563 1694.02 131.613 1694.19 131.713 1694.29C131.814 1694.38 131.987 1694.43 132.235 1694.43H132.827V1695.11H132.102C131.654 1695.11 131.319 1695.01 131.095 1694.8C130.871 1694.59 130.759 1694.25 130.759 1693.78V1690.93H130.131V1690.27H130.759V1689.05H131.563V1690.27H132.827V1690.93H131.563ZM138.096 1690.27V1695.11H137.292V1694.39C137.139 1694.64 136.924 1694.83 136.647 1694.98C136.376 1695.11 136.075 1695.18 135.746 1695.18C135.368 1695.18 135.03 1695.1 134.729 1694.95C134.429 1694.79 134.19 1694.55 134.013 1694.24C133.843 1693.93 133.757 1693.55 133.757 1693.1V1690.27H134.552V1693C134.552 1693.47 134.673 1693.84 134.915 1694.1C135.156 1694.35 135.486 1694.48 135.905 1694.48C136.335 1694.48 136.673 1694.35 136.921 1694.08C137.168 1693.82 137.292 1693.43 137.292 1692.93V1690.27H138.096ZM140.258 1691.05C140.4 1690.78 140.6 1690.56 140.859 1690.41C141.124 1690.25 141.446 1690.18 141.823 1690.18V1691.01H141.61C140.709 1691.01 140.258 1691.5 140.258 1692.47V1695.11H139.454V1690.27H140.258V1691.05ZM147.17 1692.5C147.17 1692.65 147.161 1692.82 147.143 1692.99H143.272C143.302 1693.46 143.464 1693.84 143.758 1694.11C144.059 1694.37 144.421 1694.51 144.845 1694.51C145.193 1694.51 145.482 1694.43 145.711 1694.27C145.947 1694.1 146.112 1693.89 146.206 1693.61H147.072C146.943 1694.08 146.684 1694.46 146.295 1694.75C145.906 1695.04 145.423 1695.19 144.845 1695.19C144.386 1695.19 143.973 1695.08 143.608 1694.88C143.249 1694.67 142.966 1694.38 142.76 1694C142.554 1693.62 142.45 1693.18 142.45 1692.68C142.45 1692.18 142.551 1691.74 142.751 1691.36C142.951 1690.98 143.231 1690.7 143.59 1690.5C143.956 1690.29 144.374 1690.19 144.845 1690.19C145.305 1690.19 145.711 1690.29 146.065 1690.49C146.418 1690.69 146.689 1690.96 146.878 1691.32C147.072 1691.66 147.17 1692.06 147.17 1692.5ZM146.339 1692.33C146.339 1692.03 146.271 1691.76 146.136 1691.55C146 1691.32 145.815 1691.16 145.579 1691.04C145.349 1690.93 145.093 1690.87 144.81 1690.87C144.404 1690.87 144.056 1691 143.767 1691.26C143.484 1691.51 143.322 1691.87 143.281 1692.33H146.339Z"
                        fill="white" />
                    <path id="Feature_12"
                        d="M198.774 1688.95V1689.6H196.096V1691.68H198.27V1692.33H196.096V1695.11H195.292V1688.95H198.774ZM204.164 1692.5C204.164 1692.65 204.155 1692.82 204.137 1692.99H200.266C200.296 1693.46 200.458 1693.84 200.753 1694.11C201.053 1694.37 201.415 1694.51 201.84 1694.51C202.187 1694.51 202.476 1694.43 202.706 1694.27C202.941 1694.1 203.106 1693.89 203.2 1693.61H204.067C203.937 1694.08 203.678 1694.46 203.289 1694.75C202.9 1695.04 202.417 1695.19 201.84 1695.19C201.38 1695.19 200.968 1695.08 200.602 1694.88C200.243 1694.67 199.96 1694.38 199.754 1694C199.548 1693.62 199.445 1693.18 199.445 1692.68C199.445 1692.18 199.545 1691.74 199.745 1691.36C199.945 1690.98 200.225 1690.7 200.585 1690.5C200.95 1690.29 201.368 1690.19 201.84 1690.19C202.299 1690.19 202.706 1690.29 203.059 1690.49C203.413 1690.69 203.684 1690.96 203.872 1691.32C204.067 1691.66 204.164 1692.06 204.164 1692.5ZM203.333 1692.33C203.333 1692.03 203.265 1691.76 203.13 1691.55C202.994 1691.32 202.809 1691.16 202.573 1691.04C202.343 1690.93 202.087 1690.87 201.804 1690.87C201.398 1690.87 201.05 1691 200.761 1691.26C200.479 1691.51 200.317 1691.87 200.275 1692.33H203.333ZM204.925 1692.67C204.925 1692.17 205.025 1691.74 205.225 1691.37C205.426 1690.99 205.7 1690.7 206.047 1690.5C206.401 1690.29 206.792 1690.19 207.223 1690.19C207.647 1690.19 208.015 1690.28 208.327 1690.46C208.639 1690.64 208.872 1690.87 209.025 1691.15V1690.27H209.838V1695.11H209.025V1694.21C208.866 1694.49 208.628 1694.73 208.31 1694.91C207.997 1695.1 207.632 1695.19 207.214 1695.19C206.784 1695.19 206.395 1695.08 206.047 1694.87C205.7 1694.66 205.426 1694.36 205.225 1693.98C205.025 1693.59 204.925 1693.16 204.925 1692.67ZM209.025 1692.68C209.025 1692.31 208.952 1691.99 208.804 1691.72C208.657 1691.45 208.457 1691.25 208.203 1691.11C207.956 1690.96 207.682 1690.88 207.382 1690.88C207.081 1690.88 206.807 1690.95 206.56 1691.1C206.312 1691.24 206.115 1691.44 205.968 1691.71C205.82 1691.99 205.747 1692.3 205.747 1692.67C205.747 1693.04 205.82 1693.36 205.968 1693.64C206.115 1693.91 206.312 1694.12 206.56 1694.27C206.807 1694.41 207.081 1694.48 207.382 1694.48C207.682 1694.48 207.956 1694.41 208.203 1694.27C208.457 1694.12 208.657 1693.91 208.804 1693.64C208.952 1693.36 209.025 1693.04 209.025 1692.68ZM212.178 1690.93V1693.78C212.178 1694.02 212.228 1694.19 212.329 1694.29C212.429 1694.38 212.603 1694.43 212.85 1694.43H213.442V1695.11H212.717C212.27 1695.11 211.934 1695.01 211.71 1694.8C211.486 1694.59 211.374 1694.25 211.374 1693.78V1690.93H210.747V1690.27H211.374V1689.05H212.178V1690.27H213.442V1690.93H212.178ZM218.712 1690.27V1695.11H217.907V1694.39C217.754 1694.64 217.539 1694.83 217.262 1694.98C216.991 1695.11 216.691 1695.18 216.361 1695.18C215.984 1695.18 215.645 1695.1 215.344 1694.95C215.044 1694.79 214.805 1694.55 214.629 1694.24C214.458 1693.93 214.372 1693.55 214.372 1693.1V1690.27H215.168V1693C215.168 1693.47 215.288 1693.84 215.53 1694.1C215.772 1694.35 216.102 1694.48 216.52 1694.48C216.95 1694.48 217.289 1694.35 217.536 1694.08C217.784 1693.82 217.907 1693.43 217.907 1692.93V1690.27H218.712ZM220.874 1691.05C221.015 1690.78 221.215 1690.56 221.475 1690.41C221.74 1690.25 222.061 1690.18 222.438 1690.18V1691.01H222.226C221.324 1691.01 220.874 1691.5 220.874 1692.47V1695.11H220.069V1690.27H220.874V1691.05ZM227.785 1692.5C227.785 1692.65 227.776 1692.82 227.758 1692.99H223.888C223.917 1693.46 224.079 1693.84 224.374 1694.11C224.674 1694.37 225.036 1694.51 225.461 1694.51C225.808 1694.51 226.097 1694.43 226.327 1694.27C226.562 1694.1 226.727 1693.89 226.822 1693.61H227.688C227.558 1694.08 227.299 1694.46 226.91 1694.75C226.521 1695.04 226.038 1695.19 225.461 1695.19C225.001 1695.19 224.589 1695.08 224.223 1694.88C223.864 1694.67 223.581 1694.38 223.375 1694C223.169 1693.62 223.066 1693.18 223.066 1692.68C223.066 1692.18 223.166 1691.74 223.366 1691.36C223.566 1690.98 223.846 1690.7 224.206 1690.5C224.571 1690.29 224.989 1690.19 225.461 1690.19C225.92 1690.19 226.327 1690.29 226.68 1690.49C227.034 1690.69 227.305 1690.96 227.493 1691.32C227.688 1691.66 227.785 1692.06 227.785 1692.5ZM226.954 1692.33C226.954 1692.03 226.886 1691.76 226.751 1691.55C226.615 1691.32 226.43 1691.16 226.194 1691.04C225.964 1690.93 225.708 1690.87 225.425 1690.87C225.019 1690.87 224.671 1691 224.382 1691.26C224.1 1691.51 223.938 1691.87 223.896 1692.33H226.954Z"
                        fill="white" />
                    <path id="Feature_13"
                        d="M442.887 1688.95V1689.6H440.209V1691.68H442.383V1692.33H440.209V1695.11H439.405V1688.95H442.887ZM448.277 1692.5C448.277 1692.65 448.268 1692.82 448.251 1692.99H444.38C444.409 1693.46 444.571 1693.84 444.866 1694.11C445.166 1694.37 445.529 1694.51 445.953 1694.51C446.3 1694.51 446.589 1694.43 446.819 1694.27C447.055 1694.1 447.219 1693.89 447.314 1693.61H448.18C448.05 1694.08 447.791 1694.46 447.402 1694.75C447.013 1695.04 446.53 1695.19 445.953 1695.19C445.493 1695.19 445.081 1695.08 444.716 1694.88C444.356 1694.67 444.073 1694.38 443.867 1694C443.661 1693.62 443.558 1693.18 443.558 1692.68C443.558 1692.18 443.658 1691.74 443.858 1691.36C444.059 1690.98 444.338 1690.7 444.698 1690.5C445.063 1690.29 445.481 1690.19 445.953 1690.19C446.412 1690.19 446.819 1690.29 447.172 1690.49C447.526 1690.69 447.797 1690.96 447.985 1691.32C448.18 1691.66 448.277 1692.06 448.277 1692.5ZM447.446 1692.33C447.446 1692.03 447.379 1691.76 447.243 1691.55C447.108 1691.32 446.922 1691.16 446.686 1691.04C446.457 1690.93 446.2 1690.87 445.917 1690.87C445.511 1690.87 445.163 1691 444.875 1691.26C444.592 1691.51 444.43 1691.87 444.389 1692.33H447.446ZM449.038 1692.67C449.038 1692.17 449.138 1691.74 449.339 1691.37C449.539 1690.99 449.813 1690.7 450.16 1690.5C450.514 1690.29 450.906 1690.19 451.336 1690.19C451.76 1690.19 452.128 1690.28 452.44 1690.46C452.753 1690.64 452.985 1690.87 453.139 1691.15V1690.27H453.952V1695.11H453.139V1694.21C452.98 1694.49 452.741 1694.73 452.423 1694.91C452.111 1695.1 451.745 1695.19 451.327 1695.19C450.897 1695.19 450.508 1695.08 450.16 1694.87C449.813 1694.66 449.539 1694.36 449.339 1693.98C449.138 1693.59 449.038 1693.16 449.038 1692.67ZM453.139 1692.68C453.139 1692.31 453.065 1691.99 452.918 1691.72C452.77 1691.45 452.57 1691.25 452.317 1691.11C452.069 1690.96 451.795 1690.88 451.495 1690.88C451.194 1690.88 450.92 1690.95 450.673 1691.1C450.426 1691.24 450.228 1691.44 450.081 1691.71C449.934 1691.99 449.86 1692.3 449.86 1692.67C449.86 1693.04 449.934 1693.36 450.081 1693.64C450.228 1693.91 450.426 1694.12 450.673 1694.27C450.92 1694.41 451.194 1694.48 451.495 1694.48C451.795 1694.48 452.069 1694.41 452.317 1694.27C452.57 1694.12 452.77 1693.91 452.918 1693.64C453.065 1693.36 453.139 1693.04 453.139 1692.68ZM456.292 1690.93V1693.78C456.292 1694.02 456.342 1694.19 456.442 1694.29C456.542 1694.38 456.716 1694.43 456.963 1694.43H457.555V1695.11H456.831C456.383 1695.11 456.047 1695.01 455.823 1694.8C455.599 1694.59 455.487 1694.25 455.487 1693.78V1690.93H454.86V1690.27H455.487V1689.05H456.292V1690.27H457.555V1690.93H456.292ZM462.825 1690.27V1695.11H462.021V1694.39C461.867 1694.64 461.652 1694.83 461.375 1694.98C461.104 1695.11 460.804 1695.18 460.474 1695.18C460.097 1695.18 459.758 1695.1 459.458 1694.95C459.157 1694.79 458.919 1694.55 458.742 1694.24C458.571 1693.93 458.486 1693.55 458.486 1693.1V1690.27H459.281V1693C459.281 1693.47 459.402 1693.84 459.643 1694.1C459.885 1694.35 460.215 1694.48 460.633 1694.48C461.063 1694.48 461.402 1694.35 461.649 1694.08C461.897 1693.82 462.021 1693.43 462.021 1692.93V1690.27H462.825ZM464.987 1691.05C465.128 1690.78 465.329 1690.56 465.588 1690.41C465.853 1690.25 466.174 1690.18 466.551 1690.18V1691.01H466.339C465.438 1691.01 464.987 1691.5 464.987 1692.47V1695.11H464.183V1690.27H464.987V1691.05ZM471.898 1692.5C471.898 1692.65 471.889 1692.82 471.872 1692.99H468.001C468.03 1693.46 468.192 1693.84 468.487 1694.11C468.787 1694.37 469.15 1694.51 469.574 1694.51C469.921 1694.51 470.21 1694.43 470.44 1694.27C470.676 1694.1 470.841 1693.89 470.935 1693.61H471.801C471.671 1694.08 471.412 1694.46 471.023 1694.75C470.634 1695.04 470.151 1695.19 469.574 1695.19C469.114 1695.19 468.702 1695.08 468.337 1694.88C467.977 1694.67 467.694 1694.38 467.488 1694C467.282 1693.62 467.179 1693.18 467.179 1692.68C467.179 1692.18 467.279 1691.74 467.479 1691.36C467.68 1690.98 467.96 1690.7 468.319 1690.5C468.684 1690.29 469.103 1690.19 469.574 1690.19C470.033 1690.19 470.44 1690.29 470.793 1690.49C471.147 1690.69 471.418 1690.96 471.606 1691.32C471.801 1691.66 471.898 1692.06 471.898 1692.5ZM471.067 1692.33C471.067 1692.03 471 1691.76 470.864 1691.55C470.729 1691.32 470.543 1691.16 470.307 1691.04C470.078 1690.93 469.821 1690.87 469.539 1690.87C469.132 1690.87 468.784 1691 468.496 1691.26C468.213 1691.51 468.051 1691.87 468.01 1692.33H471.067Z"
                        fill="white" />
                    <g id="Group 29">
                        <rect id="Rectangle 37" x="113.996" y="1702.88" width="30.9426"
                            height="4.40632" rx="0.998765" fill="#3AADAA" />
                        <rect id="Rectangle 38" x="113.996" y="1711.17" width="30.9426"
                            height="4.40632" rx="0.998765" fill="#3AADAA" />
                        <rect id="Rectangle 39" x="113.996" y="1719.47" width="30.9426"
                            height="4.40632" rx="0.998765" fill="#3AADAA" />
                        <rect id="Rectangle 40" x="113.996" y="1727.76" width="30.9426"
                            height="4.40632" rx="0.998765" fill="#3AADAA" />
                        <rect id="Rectangle 41" x="113.996" y="1736.06" width="30.9426"
                            height="4.40632" rx="0.998765" fill="#3AADAA" />
                        <rect id="Rectangle 42" x="113.996" y="1744.35" width="30.9426"
                            height="4.40632" rx="0.998765" fill="#3AADAA" />
                        <rect id="Rectangle 43" x="113.752" y="1800.44" width="103" height="4"
                            rx="0.998765" fill="#D9D9D9" />
                    </g>
                    <g id="Group 30">
                        <rect id="Rectangle 37_2" x="194.609" y="1703.3" width="144.539"
                            height="4.40632" rx="0.998765" fill="#D9D9D9" />
                        <rect id="Rectangle 38_2" x="194.609" y="1711.59" width="144.539"
                            height="4.40632" rx="0.998765" fill="#D9D9D9" />
                        <rect id="Rectangle 39_2" x="194.609" y="1719.89" width="144.539"
                            height="4.40632" rx="0.998765" fill="#D9D9D9" />
                        <rect id="Rectangle 40_2" x="194.609" y="1728.18" width="144.539"
                            height="4.40632" rx="0.998765" fill="#D9D9D9" />
                        <rect id="Rectangle 41_2" x="194.609" y="1736.48" width="144.539"
                            height="4.40632" rx="0.998765" fill="#D9D9D9" />
                        <rect id="Rectangle 42_2" x="194.609" y="1744.77" width="144.539"
                            height="4.40632" rx="0.998765" fill="#D9D9D9" />
                    </g>
                    <g id="Group 31">
                        <rect id="Rectangle 37_3" x="438.723" y="1702.77" width="84.3541"
                            height="4.40632" rx="0.998765" fill="#D9D9D9" />
                        <rect id="Rectangle 38_3" x="438.723" y="1711.06" width="84.3541"
                            height="4.40632" rx="0.998765" fill="#D9D9D9" />
                        <rect id="Rectangle 39_3" x="438.723" y="1719.36" width="84.3541"
                            height="4.40632" rx="0.998765" fill="#D9D9D9" />
                    </g>
                </g>
            </g>
        </g>
        <g id="Group 295">
            <rect id="Rectangle 2" x="307" y="216" width="86" height="31" rx="6.00534"
                fill="#EEEEEE" />
            <path id="Headline"
                d="M294.795 140.973V145.319H280.68V140.973H294.795ZM282.333 129.96V157H276.762V129.96H282.333ZM298.769 129.96V157H293.216V129.96H298.769ZM312.53 157.371C310.97 157.371 309.571 157.124 308.333 156.629C307.095 156.121 306.042 155.421 305.176 154.53C304.322 153.639 303.665 152.605 303.207 151.429C302.749 150.24 302.52 148.977 302.52 147.64V146.897C302.52 145.374 302.737 143.982 303.17 142.719C303.603 141.456 304.223 140.36 305.027 139.432C305.844 138.503 306.835 137.791 307.999 137.296C309.162 136.788 310.475 136.535 311.936 136.535C313.36 136.535 314.622 136.77 315.724 137.24C316.826 137.711 317.749 138.379 318.491 139.246C319.247 140.113 319.816 141.153 320.2 142.366C320.584 143.567 320.776 144.904 320.776 146.377V148.606H304.804V145.04H315.52V144.632C315.52 143.889 315.384 143.226 315.111 142.644C314.851 142.05 314.455 141.58 313.923 141.233C313.39 140.886 312.71 140.713 311.88 140.713C311.174 140.713 310.568 140.868 310.06 141.177C309.552 141.487 309.138 141.92 308.816 142.477C308.506 143.034 308.271 143.691 308.11 144.446C307.962 145.189 307.887 146.006 307.887 146.897V147.64C307.887 148.445 307.999 149.188 308.222 149.869C308.457 150.55 308.785 151.138 309.206 151.633C309.639 152.128 310.159 152.512 310.766 152.784C311.385 153.057 312.084 153.193 312.864 153.193C313.83 153.193 314.728 153.007 315.557 152.636C316.399 152.252 317.123 151.676 317.73 150.909L320.33 153.731C319.909 154.338 319.333 154.92 318.603 155.477C317.885 156.034 317.018 156.492 316.003 156.851C314.988 157.198 313.83 157.371 312.53 157.371ZM334.667 152.469V143.517C334.667 142.874 334.562 142.323 334.351 141.864C334.141 141.394 333.813 141.029 333.367 140.769C332.934 140.509 332.37 140.379 331.677 140.379C331.083 140.379 330.569 140.484 330.136 140.694C329.702 140.893 329.368 141.184 329.133 141.567C328.897 141.939 328.78 142.378 328.78 142.886H323.431C323.431 142.032 323.629 141.221 324.026 140.453C324.422 139.685 324.997 139.011 325.753 138.429C326.508 137.835 327.406 137.37 328.446 137.036C329.498 136.702 330.674 136.535 331.974 136.535C333.534 136.535 334.921 136.795 336.134 137.315C337.347 137.835 338.301 138.615 338.994 139.654C339.7 140.694 340.053 141.994 340.053 143.554V152.153C340.053 153.255 340.121 154.159 340.257 154.864C340.393 155.558 340.591 156.164 340.851 156.684V157H335.447C335.187 156.455 334.989 155.774 334.853 154.957C334.729 154.128 334.667 153.298 334.667 152.469ZM335.373 144.762L335.41 147.789H332.42C331.714 147.789 331.101 147.869 330.581 148.03C330.061 148.191 329.634 148.42 329.3 148.717C328.966 149.002 328.718 149.336 328.557 149.72C328.408 150.104 328.334 150.525 328.334 150.983C328.334 151.441 328.439 151.856 328.65 152.227C328.86 152.586 329.164 152.871 329.56 153.081C329.956 153.28 330.42 153.379 330.953 153.379C331.757 153.379 332.457 153.218 333.051 152.896C333.645 152.574 334.104 152.178 334.425 151.707C334.76 151.237 334.933 150.791 334.945 150.37L336.357 152.636C336.159 153.143 335.886 153.67 335.54 154.214C335.205 154.759 334.778 155.273 334.258 155.756C333.738 156.226 333.113 156.616 332.383 156.926C331.652 157.223 330.786 157.371 329.783 157.371C328.507 157.371 327.35 157.118 326.31 156.61C325.282 156.09 324.465 155.378 323.858 154.474C323.264 153.558 322.967 152.518 322.967 151.354C322.967 150.302 323.165 149.367 323.561 148.55C323.958 147.733 324.539 147.046 325.307 146.489C326.087 145.919 327.059 145.492 328.223 145.207C329.386 144.91 330.736 144.762 332.271 144.762H335.373ZM356.042 152.617V128.475H361.428V157H356.581L356.042 152.617ZM343.34 147.194V146.804C343.34 145.269 343.513 143.876 343.86 142.626C344.206 141.363 344.714 140.28 345.382 139.376C346.051 138.472 346.874 137.773 347.852 137.277C348.831 136.782 349.945 136.535 351.195 136.535C352.371 136.535 353.399 136.782 354.278 137.277C355.169 137.773 355.925 138.478 356.544 139.395C357.175 140.298 357.683 141.369 358.067 142.607C358.45 143.833 358.729 145.176 358.902 146.637V147.492C358.729 148.891 358.45 150.191 358.067 151.391C357.683 152.592 357.175 153.645 356.544 154.549C355.925 155.44 355.169 156.133 354.278 156.629C353.387 157.124 352.347 157.371 351.158 157.371C349.908 157.371 348.793 157.118 347.815 156.61C346.85 156.102 346.032 155.39 345.364 154.474C344.708 153.558 344.206 152.481 343.86 151.243C343.513 150.005 343.34 148.655 343.34 147.194ZM348.688 146.804V147.194C348.688 148.024 348.75 148.798 348.874 149.516C349.01 150.234 349.227 150.872 349.524 151.429C349.833 151.973 350.23 152.401 350.712 152.71C351.208 153.007 351.808 153.156 352.514 153.156C353.43 153.156 354.185 152.951 354.78 152.543C355.374 152.122 355.826 151.546 356.135 150.816C356.457 150.085 356.643 149.243 356.692 148.29V145.857C356.655 145.077 356.544 144.378 356.358 143.759C356.185 143.127 355.925 142.589 355.578 142.143C355.244 141.697 354.823 141.351 354.315 141.103C353.82 140.855 353.232 140.732 352.551 140.732C351.858 140.732 351.263 140.893 350.768 141.214C350.273 141.524 349.871 141.951 349.561 142.496C349.264 143.041 349.041 143.684 348.892 144.427C348.756 145.158 348.688 145.95 348.688 146.804ZM371.252 128.475V157H365.885V128.475H371.252ZM381.318 136.906V157H375.951V136.906H381.318ZM375.616 131.669C375.616 130.889 375.889 130.245 376.434 129.737C376.978 129.23 377.709 128.976 378.625 128.976C379.529 128.976 380.253 129.23 380.798 129.737C381.355 130.245 381.633 130.889 381.633 131.669C381.633 132.449 381.355 133.093 380.798 133.6C380.253 134.108 379.529 134.362 378.625 134.362C377.709 134.362 376.978 134.108 376.434 133.6C375.889 133.093 375.616 132.449 375.616 131.669ZM390.975 141.196V157H385.626V136.906H390.64L390.975 141.196ZM390.195 146.247H388.746C388.746 144.762 388.938 143.424 389.322 142.236C389.706 141.035 390.244 140.014 390.938 139.172C391.631 138.317 392.454 137.667 393.408 137.222C394.373 136.764 395.45 136.535 396.639 136.535C397.58 136.535 398.44 136.671 399.22 136.943C400 137.215 400.669 137.649 401.226 138.243C401.796 138.837 402.229 139.624 402.526 140.602C402.836 141.58 402.99 142.774 402.99 144.186V157H397.605V144.167C397.605 143.276 397.481 142.583 397.233 142.087C396.986 141.592 396.62 141.245 396.138 141.047C395.667 140.837 395.085 140.732 394.392 140.732C393.674 140.732 393.049 140.874 392.516 141.159C391.996 141.444 391.563 141.84 391.216 142.347C390.882 142.843 390.628 143.424 390.455 144.093C390.281 144.762 390.195 145.48 390.195 146.247ZM416.306 157.371C414.746 157.371 413.347 157.124 412.109 156.629C410.871 156.121 409.818 155.421 408.952 154.53C408.097 153.639 407.441 152.605 406.983 151.429C406.525 150.24 406.296 148.977 406.296 147.64V146.897C406.296 145.374 406.513 143.982 406.946 142.719C407.379 141.456 407.998 140.36 408.803 139.432C409.62 138.503 410.611 137.791 411.775 137.296C412.938 136.788 414.251 136.535 415.712 136.535C417.135 136.535 418.398 136.77 419.5 137.24C420.602 137.711 421.524 138.379 422.267 139.246C423.022 140.113 423.592 141.153 423.976 142.366C424.36 143.567 424.552 144.904 424.552 146.377V148.606H408.58V145.04H419.296V144.632C419.296 143.889 419.16 143.226 418.887 142.644C418.627 142.05 418.231 141.58 417.699 141.233C417.166 140.886 416.485 140.713 415.656 140.713C414.95 140.713 414.344 140.868 413.836 141.177C413.328 141.487 412.914 141.92 412.592 142.477C412.282 143.034 412.047 143.691 411.886 144.446C411.737 145.189 411.663 146.006 411.663 146.897V147.64C411.663 148.445 411.775 149.188 411.997 149.869C412.233 150.55 412.561 151.138 412.982 151.633C413.415 152.128 413.935 152.512 414.542 152.784C415.161 153.057 415.86 153.193 416.64 153.193C417.606 153.193 418.503 153.007 419.333 152.636C420.175 152.252 420.899 151.676 421.506 150.909L424.106 153.731C423.685 154.338 423.109 154.92 422.379 155.477C421.661 156.034 420.794 156.492 419.779 156.851C418.763 157.198 417.606 157.371 416.306 157.371Z"
                fill="#EEEEEE" />
        </g>
    </g>
    <defs>
        <clipPath id="clip0_0_1">
            <rect width="700" height="1815" fill="white" />
        </clipPath>
        <pattern width="1" height="1" id="theme_viin_manufacturing_automotive_s_carousel_default_image_1_id" patternunits="objectBoundingBox">
            <image width="700" height="310" preserveAspectRatio="xMidYMid slice" href="#s_carousel_default_image_1_url"/>
        </pattern>
        <pattern width="1" height="1" id="theme_viin_manufacturing_automotive_s_picture_default_image_id" patternunits="objectBoundingBox">
            <image width="520" height="280" preserveAspectRatio="xMidYMid slice" href="#s_picture_default_image_url"/>
        </pattern>
        <pattern width="1" height="1" id="theme_viin_manufacturing_automotive_library_image_10_id" patternunits="objectBoundingBox">
            <image width="210" height="140" preserveAspectRatio="xMidYMid slice" href="#library_image_10_url"/>
        </pattern>
        <pattern width="1" height="1" id="theme_viin_manufacturing_automotive_library_image_05_id" patternunits="objectBoundingBox">
            <image width="210" height="330" preserveAspectRatio="xMidYMid slice" href="#library_image_05_url"/>
        </pattern>
        <pattern width="1" height="1" id="theme_viin_manufacturing_automotive_library_image_08_id" patternunits="objectBoundingBox">
            <image width="210" height="140" preserveAspectRatio="xMidYMid slice" href="#library_image_08_url"/>
        </pattern>
        <pattern width="1" height="1" id="theme_viin_manufacturing_automotive_library_image_13_id" patternunits="objectBoundingBox">
            <image width="210" height="140" preserveAspectRatio="xMidYMid slice" href="#library_image_13_url"/>
        </pattern>
        <pattern width="1" height="1" id="theme_viin_manufacturing_automotive_library_image_03_id" patternunits="objectBoundingBox">
            <image width="210" height="140" preserveAspectRatio="xMidYMid slice" href="#library_image_03_url"/>
        </pattern>
        <pattern width="1" height="1" id="theme_viin_manufacturing_automotive_library_image_02_id" patternunits="objectBoundingBox">
            <image width="210" height="140" preserveAspectRatio="xMidYMid slice" href="#library_image_02_url"/>
        </pattern>
        <pattern width="1" height="1" id="theme_viin_manufacturing_automotive_s_quotes_carousel_demo_image_1_id" patternunits="objectBoundingBox">
            <image width="770" height="190" preserveAspectRatio="xMidYMid slice" href="#s_quotes_carousel_demo_image_1_url"/>
        </pattern>
        <pattern width="1" height="1" id="theme_viin_manufacturing_automotive_s_product_list_default_image_1_id" patternunits="objectBoundingBox">
            <image width="90" height="70" preserveAspectRatio="xMidYMid slice" href="#s_product_list_default_image_1_url"/>
        </pattern>
        <pattern width="1" height="1" id="theme_viin_manufacturing_automotive_s_product_list_default_image_2_id" patternunits="objectBoundingBox">
            <image width="90" height="70" preserveAspectRatio="xMidYMid slice" href="#s_product_list_default_image_2_url"/>
        </pattern>
        <pattern width="1" height="1" id="theme_viin_manufacturing_automotive_s_product_list_default_image_3_id" patternunits="objectBoundingBox">
            <image width="90" height="70" preserveAspectRatio="xMidYMid slice" href="#s_product_list_default_image_3_url"/>
        </pattern>
        <pattern width="1" height="1" id="theme_viin_manufacturing_automotive_s_product_list_default_image_4_id" patternunits="objectBoundingBox">
            <image width="90" height="70" preserveAspectRatio="xMidYMid slice" href="#s_product_list_default_image_4_url"/>
        </pattern>
        <pattern width="1" height="1" id="theme_viin_manufacturing_automotive_s_product_list_default_image_5_id" patternunits="objectBoundingBox">
            <image width="90" height="70" preserveAspectRatio="xMidYMid slice" href="#s_product_list_default_image_5_url"/>
        </pattern>
        <pattern width="1" height="1" id="theme_viin_manufacturing_automotive_s_product_list_default_image_6_id" patternunits="objectBoundingBox">
            <image width="90" height="70" preserveAspectRatio="xMidYMid slice" href="#s_product_list_default_image_6_url"/>
        </pattern>
        <pattern width="1" height="1" id="theme_viin_manufacturing_automotive_s_text_image_id" patternunits="objectBoundingBox">
            <image width="280" height="190" preserveAspectRatio="xMidYMid slice" href="#s_text_image_default_image_url"/>
        </pattern>
        <pattern width="1" height="1" id="theme_viin_manufacturing_automotive_default_three_column_1_id" patternunits="objectBoundingBox">
            <image width="210" height="140" preserveAspectRatio="xMidYMid slice" href="#s_three_columns_default_image_1_url"/>
        </pattern>
        <pattern width="1" height="1" id="theme_viin_manufacturing_automotive_default_three_column_2_id" patternunits="objectBoundingBox">
            <image width="210" height="140" preserveAspectRatio="xMidYMid slice" href="#s_three_columns_default_image_2_url"/>
        </pattern>
        <pattern width="1" height="1" id="theme_viin_manufacturing_automotive_default_three_column_3_id" patternunits="objectBoundingBox">
            <image width="210" height="140" preserveAspectRatio="xMidYMid slice" href="#s_three_columns_default_image_3_url"/>
        </pattern>
        <pattern width="1" height="1" id="theme_viin_manufacturing_automotive_s_image_text_id" patternunits="objectBoundingBox">
            <image width="280" height="190" preserveAspectRatio="xMidYMid slice" href="#s_image_text_default_image_url"/>
        </pattern>
        <pattern width="1" height="1" id="theme_viin_manufacturing_automotive_medialist_1_id" patternunits="objectBoundingBox">
            <image width="220" height="120" preserveAspectRatio="xMidYMid slice" href="#s_media_list_default_image_1_url"/>
        </pattern>
        <pattern width="1" height="1" id="theme_viin_manufacturing_automotive_medialist_2_id" patternunits="objectBoundingBox">
            <image width="220" height="120" preserveAspectRatio="xMidYMid slice" href="#s_media_list_default_image_2_url"/>
        </pattern>
        <pattern width="1" height="1" id="theme_viin_manufacturing_automotive_medialist_3_id" patternunits="objectBoundingBox">
            <image width="160" height="120" preserveAspectRatio="xMidYMid slice" href="#s_media_list_default_image_3_url"/>
        </pattern>
        <pattern width="1" height="1" id="theme_viin_manufacturing_automotive_masonry_block_id" patternunits="objectBoundingBox">
            <image width="300" height="300" preserveAspectRatio="xMidYMid slice" href="#s_masonry_block_default_image_1_url"/>
        </pattern>
        <pattern width="1" height="1" id="theme_viin_manufacturing_automotive_quotes_carousel_0_id" patternunits="objectBoundingBox">
            <image width="500" height="300" preserveAspectRatio="xMidYMid slice" href="#s_quotes_carousel_demo_image_0_url"/>
        </pattern>
        <pattern width="1" height="1" id="theme_viin_manufacturing_automotive_cover_id" patternunits="objectBoundingBox">
            <image width="700" height="300" preserveAspectRatio="xMidYMid slice" href="#s_cover_default_image_url"/>
        </pattern>
        <pattern width="1" height="1" id="theme_viin_manufacturing_automotive_parallax_id" patternunits="objectBoundingBox">
            <image width="700" height="200" preserveAspectRatio="xMidYMid slice" href="#s_parallax_default_image_url"/>
        </pattern>
    </defs>
</svg>
